<svg width="120" height="124" viewBox="0 0 120 124" fill="none" xmlns="http://www.w3.org/2000/svg">
<g filter="url(#filter0_di_14_34)">
<circle cx="60" cy="60" r="60" fill="url(#paint0_linear_14_34)"/>
</g>
<path d="M70.4376 58.7232L55.159 49.1753C54.9312 49.033 54.6694 48.9542 54.4009 48.9471C54.1324 48.9401 53.8669 49.005 53.6319 49.1351C53.3969 49.2653 53.2011 49.456 53.0647 49.6874C52.9283 49.9188 52.8562 50.1824 52.8561 50.4511V69.5479C52.8549 69.8171 52.9261 70.0816 53.0622 70.3138C53.1983 70.546 53.3943 70.7373 53.6297 70.8679C53.865 70.9984 54.1312 71.0632 54.4002 71.0557C54.6692 71.0481 54.9313 70.9684 55.159 70.8248L70.4376 61.2769C70.654 61.1415 70.8325 60.9532 70.9562 60.7299C71.0798 60.5065 71.1447 60.2554 71.1447 60.0001C71.1447 59.7447 71.0798 59.4936 70.9562 59.2702C70.8325 59.0469 70.654 58.8586 70.4376 58.7232Z" fill="white"/>
<defs>
<filter id="filter0_di_14_34" x="0" y="0" width="120" height="124" filterUnits="userSpaceOnUse" color-interpolation-filters="sRGB">
<feFlood flood-opacity="0" result="BackgroundImageFix"/>
<feColorMatrix in="SourceAlpha" type="matrix" values="0 0 0 0 0 0 0 0 0 0 0 0 0 0 0 0 0 0 127 0" result="hardAlpha"/>
<feOffset dy="4"/>
<feColorMatrix type="matrix" values="0 0 0 0 0.841667 0 0 0 0 0.420242 0 0 0 0 0.189375 0 0 0 1 0"/>
<feBlend mode="normal" in2="BackgroundImageFix" result="effect1_dropShadow_14_34"/>
<feBlend mode="normal" in="SourceGraphic" in2="effect1_dropShadow_14_34" result="shape"/>
<feColorMatrix in="SourceAlpha" type="matrix" values="0 0 0 0 0 0 0 0 0 0 0 0 0 0 0 0 0 0 127 0" result="hardAlpha"/>
<feOffset dy="4"/>
<feGaussianBlur stdDeviation="10"/>
<feComposite in2="hardAlpha" operator="arithmetic" k2="-1" k3="1"/>
<feColorMatrix type="matrix" values="0 0 0 0 1 0 0 0 0 0.742581 0 0 0 0 0.525 0 0 0 1 0"/>
<feBlend mode="normal" in2="shape" result="effect2_innerShadow_14_34"/>
</filter>
<linearGradient id="paint0_linear_14_34" x1="60" y1="0" x2="60" y2="120" gradientUnits="userSpaceOnUse">
<stop stop-color="#F2A45C"/>
<stop offset="1" stop-color="#E86B2E"/>
</linearGradient>
</defs>
</svg>
