<svg width="20" height="24" viewBox="0 0 20 24" fill="none" xmlns="http://www.w3.org/2000/svg">
<path d="M18.4376 10.7232L3.15897 1.17531C2.93117 1.03297 2.66943 0.954184 2.40091 0.947122C2.13239 0.940061 1.86688 1.00498 1.63191 1.13515C1.39695 1.26531 1.20109 1.45598 1.06467 1.68737C0.928252 1.91876 0.856235 2.18244 0.856093 2.45106V21.5479C0.854939 21.8171 0.926129 22.0816 1.06222 22.3138C1.1983 22.546 1.39429 22.7373 1.62967 22.8679C1.86505 22.9984 2.13118 23.0632 2.40021 23.0557C2.66924 23.0481 2.9313 22.9684 3.15897 22.8248L18.4376 13.2769C18.654 13.1415 18.8325 12.9532 18.9562 12.7299C19.0798 12.5065 19.1447 12.2554 19.1447 12.0001C19.1447 11.7447 19.0798 11.4936 18.9562 11.2702C18.8325 11.0469 18.654 10.8586 18.4376 10.7232V10.7232Z" fill="white"/>
</svg>
