<?xml version="1.0" standalone="no"?>
<!DOCTYPE svg PUBLIC "-//W3C//DTD SVG 20010904//EN"
 "http://www.w3.org/TR/2001/REC-SVG-20010904/DTD/svg10.dtd">
<svg version="1.0" xmlns="http://www.w3.org/2000/svg"
 width="1160.000000pt" height="1160.000000pt" viewBox="0 0 1160.000000 1160.000000"
 preserveAspectRatio="xMidYMid meet">
<metadata>
Created by potrace 1.14, written by Peter Selinger 2001-2017
</metadata>
<g transform="translate(0.000000,1160.000000) scale(0.100000,-0.100000)"
fill="#000000" stroke="none">
<path d="M4590 11578 c-19 -5 -39 -13 -45 -18 -16 -12 -107 -31 -166 -34 -69
-4 -61 -2 -97 -33 -47 -42 -58 -94 -37 -173 3 -14 7 -29 8 -35 2 -5 6 -16 11
-23 4 -7 6 -16 3 -18 -3 -3 1 -17 8 -31 7 -14 12 -34 10 -44 -2 -11 1 -19 7
-19 5 0 8 -7 4 -15 -3 -8 -2 -15 2 -15 4 0 8 -16 10 -36 1 -19 7 -44 12 -54 6
-11 11 -38 13 -60 1 -22 6 -40 11 -40 4 0 6 -7 3 -15 -4 -8 -2 -17 2 -20 5 -3
8 -18 7 -35 -1 -16 2 -31 6 -32 4 -2 10 -21 12 -43 2 -22 5 -40 6 -40 1 0 8
-41 14 -90 3 -16 5 -30 6 -30 1 0 4 -13 6 -30 2 -16 6 -46 8 -65 19 -145 25
-319 14 -395 -5 -33 -24 -72 -44 -92 -19 -20 -76 -4 -104 28 -40 45 -75 94
-73 101 2 4 -1 8 -6 8 -5 0 -16 15 -25 33 -9 17 -26 47 -36 65 -11 17 -16 32
-12 32 4 0 0 5 -8 10 -8 5 -15 13 -15 17 0 4 -12 33 -27 63 -49 105 -72 155
-72 162 -1 3 -4 10 -8 14 -5 4 -8 16 -8 26 0 11 -4 16 -10 13 -6 -4 -10 5 -10
19 0 14 -5 26 -12 26 -6 0 -8 3 -5 7 4 3 0 17 -8 30 -9 13 -13 23 -9 23 3 0
-1 12 -11 26 -9 15 -12 23 -5 19 7 -4 5 3 -4 17 -8 13 -27 55 -41 93 -26 73
-52 104 -89 106 -69 5 -134 -5 -203 -30 -28 -10 -54 -16 -57 -13 -3 3 -6 1 -6
-4 0 -5 -9 -10 -19 -11 -20 -2 -54 -31 -58 -51 -2 -6 4 -29 11 -50 8 -22 12
-43 9 -46 -4 -3 -1 -6 6 -6 6 0 11 -6 9 -12 -1 -7 3 -23 10 -35 10 -19 10 -23
0 -23 -10 0 -10 -2 1 -9 7 -5 10 -14 7 -20 -4 -6 -2 -11 3 -11 6 0 11 -8 11
-18 0 -10 6 -24 13 -31 10 -11 9 -12 -3 -6 -12 7 -13 6 -3 -7 7 -8 10 -18 6
-21 -3 -4 -1 -7 6 -7 7 0 9 -4 6 -10 -3 -5 -3 -16 2 -22 7 -13 12 -30 17 -58
1 -9 5 -21 10 -28 4 -6 9 -20 11 -29 2 -10 6 -26 10 -35 4 -10 3 -18 -2 -18
-10 0 -58 99 -55 113 1 4 -3 7 -9 7 -5 0 -7 5 -4 10 3 6 1 10 -4 10 -6 0 -10
3 -9 8 1 4 -3 17 -10 28 -6 12 -8 24 -5 28 3 3 1 6 -5 6 -7 0 -11 3 -10 8 1 4
-10 31 -25 60 -15 30 -27 59 -27 65 0 6 -8 19 -17 30 -13 15 -14 18 -3 12 10
-6 9 -1 -3 13 -11 11 -16 25 -13 30 3 6 -1 13 -10 16 -8 3 -12 10 -9 16 3 5 1
10 -6 10 -7 0 -9 3 -6 7 15 14 -15 31 -46 26 -33 -5 -109 -42 -115 -55 -2 -5
-8 -8 -14 -8 -5 0 -22 -9 -38 -20 -15 -11 -30 -17 -34 -13 -3 3 -6 2 -6 -4 0
-6 -13 -16 -30 -23 -16 -7 -27 -16 -24 -21 3 -5 -1 -9 -9 -9 -27 0 -6 -117 25
-141 5 -3 9 -17 10 -31 1 -15 5 -25 9 -23 7 5 35 -75 31 -88 -1 -5 2 -6 8 -2
6 4 10 -4 10 -19 0 -14 5 -26 11 -26 5 0 7 -4 4 -10 -3 -5 -1 -10 6 -10 7 0
10 -2 7 -5 -3 -3 5 -39 17 -80 13 -41 21 -75 18 -75 -3 0 0 -7 7 -15 6 -8 9
-19 5 -25 -3 -5 -3 -10 2 -10 4 0 9 -10 9 -22 2 -26 12 -81 21 -118 3 -14 7
-41 9 -60 8 -98 14 -143 18 -148 3 -3 1 -11 -5 -19 -6 -7 -7 -13 -2 -13 5 0 9
-59 9 -140 -1 -77 1 -140 4 -140 7 0 3 -91 -4 -98 -3 -3 -1 -11 5 -18 5 -7 6
-14 2 -17 -11 -7 -7 -321 5 -341 3 -5 7 -30 9 -55 2 -25 6 -53 9 -61 5 -13 11
-38 18 -75 1 -5 4 -14 7 -20 4 -5 10 -23 14 -40 11 -40 12 -44 15 -52 1 -5 2
-11 1 -15 0 -5 2 -8 7 -8 4 0 14 -15 21 -32 28 -64 72 -124 137 -186 36 -34
69 -60 74 -57 5 3 13 -2 18 -11 5 -9 13 -16 18 -16 22 -2 44 -11 44 -18 0 -5
8 -7 18 -6 9 2 34 -3 55 -10 20 -7 37 -10 37 -5 0 9 37 8 46 -2 4 -3 15 -2 25
3 12 7 19 6 22 -3 3 -9 7 -9 17 0 8 7 22 8 42 2 17 -4 34 -6 39 -4 4 3 10 1
14 -5 4 -6 11 -8 16 -5 5 4 9 3 9 -2 0 -4 14 -14 31 -22 32 -14 73 -53 69 -66
-1 -4 4 -11 11 -16 15 -9 19 -24 26 -101 3 -35 1 -61 -6 -70 -42 -50 -61 -68
-71 -68 -5 0 -10 -5 -10 -10 0 -6 -11 -15 -25 -20 -14 -5 -25 -14 -25 -20 0
-6 -4 -8 -10 -5 -5 3 -10 2 -10 -4 0 -6 -11 -13 -25 -17 -14 -3 -25 -13 -25
-23 0 -14 -2 -14 -10 -1 -5 8 -10 10 -10 4 0 -6 -12 -17 -27 -24 -16 -8 -40
-23 -55 -33 -16 -10 -28 -16 -28 -12 0 3 -6 1 -12 -5 -26 -22 -88 -59 -88 -53
0 3 -8 -1 -18 -10 -10 -10 -22 -14 -25 -10 -4 3 -7 2 -7 -4 0 -6 -19 -23 -42
-39 -23 -16 -67 -53 -98 -81 -30 -29 -61 -53 -67 -53 -7 0 -12 -6 -10 -12 1
-7 -4 -12 -10 -11 -7 2 -13 -2 -13 -7 0 -6 -4 -10 -10 -10 -9 0 -42 -25 -76
-58 -8 -7 -14 -11 -14 -7 0 3 -12 -5 -27 -19 -15 -14 -30 -23 -35 -20 -4 3 -8
0 -8 -6 0 -6 -12 -16 -27 -23 -15 -6 -38 -22 -51 -34 -14 -13 -28 -20 -32 -18
-4 3 -10 -2 -14 -10 -3 -8 -12 -15 -20 -15 -8 0 -16 -3 -18 -7 -4 -11 -94 -73
-105 -73 -4 0 -21 -11 -36 -25 -15 -14 -27 -23 -27 -20 0 3 -10 -3 -22 -15
-12 -11 -25 -20 -30 -20 -11 0 -46 -28 -95 -77 l-41 -42 3 -83 c6 -125 8 -138
17 -138 5 0 7 -3 5 -7 -3 -5 -1 -17 3 -28 10 -27 -18 -80 -74 -135 -55 -56
-106 -101 -106 -95 0 5 -39 -26 -66 -53 -7 -7 -17 -13 -21 -12 -4 0 -15 -5
-23 -12 -20 -17 -74 -52 -77 -50 -2 1 -15 -10 -29 -23 -15 -14 -31 -25 -36
-25 -5 0 -25 -15 -43 -34 -31 -33 -33 -38 -31 -98 2 -35 6 -72 10 -83 8 -21
18 -45 37 -92 21 -50 52 -108 63 -115 6 -4 7 -8 3 -8 -8 0 21 -59 34 -70 3 -3
13 -18 22 -35 22 -40 73 -96 81 -88 3 3 6 1 6 -4 0 -23 63 4 108 46 18 17 35
31 37 31 13 2 65 36 65 43 0 4 5 7 11 7 6 0 30 14 55 30 24 17 44 27 44 23 0
-4 4 -3 8 2 8 13 70 49 180 107 42 22 82 44 88 49 6 5 14 6 17 2 4 -3 7 -1 7
5 0 7 6 12 13 12 10 0 13 -17 12 -62 -1 -35 2 -75 6 -90 4 -16 4 -28 -1 -28
-6 0 -6 -10 -1 -23 5 -13 11 -52 14 -86 4 -48 2 -64 -9 -68 -8 -3 -12 -9 -9
-13 3 -5 -4 -11 -15 -15 -11 -3 -20 -10 -20 -15 0 -5 -9 -12 -21 -15 -12 -4
-29 -13 -38 -21 -9 -7 -25 -20 -35 -28 -22 -15 -29 -75 -14 -116 6 -14 11 -34
13 -45 6 -34 11 -49 28 -89 9 -21 17 -45 17 -52 0 -8 5 -14 10 -14 6 0 10 -7
10 -15 0 -8 13 -28 28 -45 26 -27 33 -29 85 -25 65 5 70 0 82 -75 4 -25 9 -52
10 -60 3 -16 -13 -34 -30 -36 -24 -2 -75 -27 -76 -37 0 -7 -2 -22 -3 -35 -2
-13 1 -25 6 -28 4 -3 6 -10 3 -15 -4 -5 -1 -9 4 -9 6 0 10 -3 9 -7 -3 -17 17
-71 48 -130 18 -34 30 -64 26 -67 -3 -3 0 -6 7 -6 7 0 9 -4 6 -10 -3 -5 -1
-10 6 -10 7 0 9 -3 6 -7 -4 -3 1 -12 11 -20 9 -8 11 -11 3 -7 -7 4 -3 -8 10
-27 30 -42 40 -50 57 -44 8 3 19 2 25 -2 6 -3 29 -8 51 -10 99 -7 112 -9 122
-15 6 -4 10 -43 9 -97 -1 -51 3 -91 8 -91 5 0 3 -8 -4 -17 -12 -14 -12 -16 0
-8 10 6 12 4 6 -6 -13 -20 -13 -179 0 -179 7 0 6 -3 -1 -8 -12 -8 -13 -51 -1
-69 5 -7 4 -13 0 -13 -5 0 -9 -9 -9 -20 0 -11 4 -20 9 -20 5 0 4 -6 -2 -14 -7
-8 -8 -16 -4 -19 10 -6 9 -59 -1 -75 -3 -6 -2 -13 4 -17 7 -4 6 -13 -1 -27 -6
-11 -7 -18 -2 -15 5 3 10 -45 12 -111 5 -165 5 -176 14 -189 4 -6 1 -13 -5
-16 -10 -3 -10 -7 -1 -18 7 -9 8 -20 3 -29 -5 -8 -6 -19 -2 -24 6 -10 13 -97
15 -183 0 -24 3 -43 6 -43 4 0 6 -29 6 -65 0 -36 3 -65 6 -65 3 0 4 -14 1 -30
-3 -20 0 -30 8 -30 10 0 10 -3 0 -15 -7 -8 -8 -15 -3 -15 5 0 9 -15 10 -32 4
-77 8 -118 13 -118 3 0 6 -8 6 -17 1 -32 20 -163 30 -203 3 -14 7 -34 9 -45 3
-19 6 -33 21 -102 3 -16 7 -33 8 -40 1 -7 5 -16 9 -19 4 -4 7 -20 7 -35 0 -15
4 -30 9 -34 6 -3 8 -14 6 -25 -2 -11 1 -22 6 -25 5 -4 7 -11 4 -16 -4 -5 -1
-9 4 -9 6 0 11 -11 11 -23 0 -13 3 -27 8 -31 4 -4 8 -12 8 -17 1 -5 3 -11 4
-14 1 -3 3 -8 4 -12 1 -5 7 -17 13 -28 6 -11 12 -24 14 -30 1 -5 4 -18 7 -28
2 -9 8 -17 13 -17 5 0 8 -3 7 -8 -3 -12 13 -52 21 -52 4 0 8 -6 8 -14 0 -16
94 -209 106 -217 5 -3 8 -10 8 -15 -1 -15 23 -64 31 -64 5 0 8 -9 8 -20 0 -10
7 -23 16 -28 9 -5 15 -12 15 -15 -3 -18 0 -27 12 -39 6 -7 23 -35 36 -61 13
-26 28 -47 32 -47 5 0 9 -9 9 -20 0 -11 4 -20 8 -20 10 0 37 -50 34 -63 -1 -4
3 -7 9 -7 5 0 15 -14 21 -31 6 -16 13 -28 16 -25 3 3 15 -15 28 -40 13 -25 33
-54 44 -64 12 -10 21 -21 20 -25 -1 -4 7 -18 19 -31 12 -13 21 -28 21 -34 0
-5 9 -15 20 -23 11 -8 17 -16 14 -19 -3 -3 11 -23 30 -44 20 -22 36 -44 36
-49 0 -6 9 -17 20 -25 11 -8 20 -18 20 -23 0 -5 13 -22 30 -37 16 -15 30 -32
30 -37 0 -8 20 -32 116 -135 24 -26 44 -49 44 -52 0 -3 70 -75 155 -161 85
-85 155 -153 155 -151 0 2 17 -13 38 -33 67 -62 122 -111 122 -106 0 4 32 -22
80 -67 10 -9 21 -14 24 -11 3 4 6 -2 6 -12 0 -10 3 -16 6 -12 4 3 12 1 20 -6
39 -35 97 -72 107 -69 4 1 10 -5 13 -13 4 -8 15 -15 25 -15 10 0 19 -5 19 -12
0 -6 3 -8 7 -5 3 4 21 -3 40 -14 18 -11 33 -18 33 -15 0 4 14 0 30 -9 17 -9
30 -13 30 -9 0 4 7 1 15 -6 8 -7 22 -10 30 -6 9 3 18 -1 22 -10 5 -13 7 -13
14 -2 6 8 9 9 9 2 0 -7 10 -12 23 -13 196 -7 272 -5 332 6 89 17 97 19 115 26
25 9 74 20 83 19 4 -1 7 2 7 8 0 6 3 9 8 8 15 -4 92 26 92 35 0 6 3 8 6 5 3
-3 44 14 92 39 48 25 97 51 109 57 13 6 23 14 23 19 0 4 7 7 15 7 8 0 24 9 35
20 11 11 20 18 20 14 0 -6 72 47 82 61 4 5 8 6 8 2 0 -4 11 3 23 17 13 14 27
23 30 19 4 -3 9 2 13 11 3 9 12 16 20 16 7 0 18 9 24 20 6 11 15 20 20 20 6 0
18 8 28 18 10 9 54 49 98 89 87 79 195 183 190 183 -1 0 25 29 58 64 34 35 79
86 101 112 22 26 48 56 57 66 10 10 16 18 13 18 -12 0 53 63 79 77 30 15 176
157 176 171 0 10 36 36 43 31 7 -6 97 86 97 100 0 6 3 11 8 11 4 0 20 27 35
60 16 33 34 60 40 60 5 0 8 3 4 6 -3 3 8 19 24 35 16 16 26 29 22 29 -4 0 -1
6 7 13 17 13 71 102 69 113 0 4 3 10 8 13 5 3 26 41 47 84 21 42 43 77 49 77
6 0 8 3 5 6 -4 3 3 20 15 39 45 68 94 150 95 159 0 5 6 12 14 17 7 5 13 12 13
16 1 4 16 29 34 55 19 25 33 49 32 53 -1 4 6 13 16 20 10 7 15 16 11 20 -4 4
2 16 12 28 11 11 17 24 14 29 -3 4 0 8 7 8 7 0 9 3 6 7 -4 3 -3 11 2 17 5 6
14 29 21 50 7 22 24 51 38 65 25 25 63 99 69 135 2 11 8 25 14 33 6 7 9 13 6
13 -4 0 0 18 8 40 11 30 11 40 2 40 -9 0 -9 2 0 8 11 7 17 32 29 117 3 22 7
47 10 55 3 8 8 33 10 55 3 22 8 51 10 65 3 14 7 36 9 50 2 14 4 25 5 25 2 0 5
13 14 53 3 13 11 36 19 51 7 15 13 35 11 44 -1 9 1 17 4 17 4 0 8 12 8 27 1
16 5 39 8 53 4 14 9 43 12 65 7 59 9 69 17 83 5 7 3 12 -3 12 -6 0 -8 5 -5 10
7 11 10 28 19 98 3 24 8 47 11 53 4 5 0 9 -7 9 -9 0 -10 2 -2 8 7 4 14 35 17
69 3 35 8 67 12 73 3 5 1 10 -6 10 -8 0 -8 4 1 15 7 8 10 21 7 29 -3 8 -3 17
1 21 4 3 8 23 9 43 1 20 5 60 9 87 3 28 7 67 7 88 1 20 4 37 7 37 4 0 7 17 8
37 1 41 9 135 12 143 1 3 2 8 1 13 0 4 3 7 8 7 12 0 53 98 46 110 -3 6 -2 10
3 10 4 0 8 30 7 68 -1 51 3 75 19 102 11 19 22 37 25 40 4 3 7 12 9 20 2 8 8
17 13 18 5 2 9 9 9 16 0 6 11 28 25 49 14 20 23 37 20 37 -3 0 6 18 20 40 14
22 23 40 20 40 -4 0 1 12 9 28 13 22 32 65 41 92 1 3 7 19 14 35 31 74 60 168
55 176 -3 5 -1 9 4 9 8 0 14 20 38 130 3 14 7 36 9 50 2 14 4 26 5 28 2 1 4 7
5 12 1 6 3 11 5 13 1 1 3 18 5 37 1 19 3 35 5 35 2 0 8 52 14 123 2 29 6 56
10 59 3 3 1 12 -5 20 -6 7 -7 13 -2 13 5 0 10 7 10 15 0 8 -5 15 -10 15 -6 0
-6 5 0 13 10 13 9 181 -1 222 -4 16 -2 25 5 25 8 0 8 4 2 13 -5 6 -11 28 -12
47 -4 45 -8 75 -11 75 -1 0 -3 16 -4 35 -2 19 -6 51 -10 70 -4 19 -9 46 -12
60 -2 14 -10 51 -18 83 -8 31 -12 57 -9 57 3 0 0 6 -6 14 -6 8 -13 28 -14 45
-1 17 -5 31 -9 31 -3 0 -12 23 -18 51 -7 29 -19 64 -26 78 -8 14 -14 31 -14
37 0 6 -8 29 -17 50 -9 22 -17 41 -18 44 -1 3 -10 25 -21 50 -10 25 -18 48
-16 53 1 4 -3 7 -8 7 -6 0 -10 5 -10 11 0 18 -44 109 -53 109 -5 0 -5 5 -2 10
3 6 1 10 -4 10 -6 0 -10 3 -9 8 2 7 -33 83 -42 92 -3 3 -16 25 -29 50 -43 79
-46 84 -63 104 -10 11 -18 23 -18 28 0 8 -97 160 -108 168 -14 10 -52 69 -52
80 0 6 -4 8 -10 5 -5 -3 -10 3 -10 15 0 12 -4 18 -10 15 -5 -3 -10 -2 -10 4 0
6 -13 26 -30 44 -16 19 -30 39 -30 43 0 5 -9 15 -20 22 -11 7 -20 19 -20 28 0
8 -4 13 -9 10 -5 -3 -16 9 -25 27 -8 17 -16 28 -16 24 0 -5 -12 6 -27 24 -16
18 -27 38 -25 44 2 5 1 7 -3 3 -9 -8 -75 57 -75 73 0 7 -3 10 -6 6 -8 -7 -34
17 -34 32 0 6 -4 11 -9 11 -5 0 -25 16 -45 36 -20 20 -36 33 -36 30 0 -3 -9 2
-19 12 -55 50 -81 71 -81 64 0 -4 -4 -2 -8 3 -11 15 -70 55 -81 55 -6 0 -14 6
-18 14 -4 8 -10 14 -13 13 -6 -1 -62 34 -70 44 -3 3 -20 12 -37 20 -18 8 -33
18 -33 22 0 5 5 5 10 2 6 -3 10 -1 10 4 0 6 3 10 8 8 7 -2 41 11 132 51 19 8
41 15 48 15 6 0 12 5 12 10 0 5 7 7 15 3 8 -3 15 -1 15 4 0 6 7 10 15 10 9 0
27 7 40 16 13 9 30 17 37 18 7 1 39 14 71 29 32 15 62 27 67 27 6 0 10 5 10
11 0 5 4 8 9 4 5 -3 17 2 25 11 9 8 16 13 16 10 0 -17 91 73 111 109 16 29 21
128 8 150 -4 6 -5 20 -4 33 1 12 -2 22 -7 22 -4 0 -7 3 -6 8 9 30 -89 143
-115 134 -5 -1 -24 2 -42 7 -21 6 -35 6 -37 0 -2 -5 -18 -10 -36 -12 -17 -1
-32 -5 -32 -8 0 -4 -14 -9 -30 -12 -29 -6 -60 -13 -70 -17 -3 -1 -9 -2 -14 -1
-4 1 -13 -2 -20 -7 -6 -5 -19 -8 -28 -7 -10 2 -18 -1 -18 -6 0 -6 -6 -9 -12
-8 -7 2 -32 -3 -55 -9 -23 -7 -45 -12 -50 -11 -4 1 -21 -3 -38 -10 -16 -7 -43
-15 -60 -17 -34 -4 -123 -24 -145 -32 -18 -7 -48 -12 -77 -14 -13 -1 -23 -5
-23 -9 0 -4 -8 -6 -17 -4 -10 1 -22 0 -28 -4 -5 -3 -17 -6 -25 -6 -8 0 -21 -4
-27 -8 -7 -5 -17 -5 -23 -2 -5 3 -10 2 -10 -4 0 -5 -9 -8 -20 -6 -11 2 -22 0
-25 -5 -3 -5 -12 -7 -20 -3 -9 3 -15 -1 -15 -8 0 -12 -2 -12 -9 0 -6 9 -11 10
-15 2 -15 -24 -56 -11 -98 33 -73 75 -128 140 -128 154 0 6 -7 12 -16 12 -8 0
-12 5 -9 10 3 6 3 10 -2 10 -4 0 -19 17 -32 38 -14 20 -30 42 -35 47 -6 6 -36
46 -66 90 -30 44 -62 89 -72 99 -10 11 -18 26 -18 33 0 7 -4 13 -10 13 -5 0
-10 7 -10 16 0 8 -4 12 -10 9 -5 -3 -10 0 -10 8 0 7 -9 23 -20 35 -12 12 -17
22 -13 22 4 0 3 4 -3 8 -6 4 -19 22 -28 40 -9 17 -22 32 -28 32 -6 0 -9 3 -5
6 3 3 -3 15 -13 27 -11 11 -17 23 -15 27 2 3 -5 13 -16 20 -10 8 -19 18 -19
22 0 5 -25 45 -55 89 -30 44 -55 84 -55 90 0 5 -4 9 -10 9 -5 0 -12 11 -16 25
-3 14 -10 22 -15 19 -5 -3 -9 4 -9 15 0 10 -4 21 -8 23 -11 4 -72 97 -72 109
0 5 -4 9 -10 9 -5 0 -10 6 -10 14 0 8 -4 16 -9 18 -5 2 -11 10 -13 18 -2 8 -6
17 -9 20 -14 12 -69 100 -69 109 0 6 -4 11 -9 11 -5 0 -16 16 -25 35 -9 19
-22 35 -28 35 -6 0 -8 3 -5 6 7 7 -29 63 -48 76 -5 4 -6 8 -2 8 4 0 -3 15 -17
33 -15 19 -26 37 -26 41 0 6 -39 65 -50 76 -3 3 -12 18 -20 34 -29 56 -35 66
-42 66 -5 0 -8 7 -8 15 0 8 -3 15 -7 15 -5 0 -17 18 -27 40 -11 22 -23 40 -28
40 -4 0 -8 6 -8 14 0 7 -9 25 -21 40 -11 14 -17 26 -13 26 4 0 -2 8 -12 18
-10 9 -26 31 -35 47 -26 50 -43 79 -56 92 -6 7 -17 26 -25 43 -7 16 -16 30
-20 30 -5 0 -8 6 -8 13 0 7 -9 23 -20 35 -12 12 -18 22 -14 22 3 0 -5 15 -18
33 -41 55 -78 124 -70 132 4 5 2 5 -4 2 -11 -7 -23 9 -20 26 0 5 -7 13 -16 18
-10 6 -18 19 -18 30 0 11 -7 22 -15 25 -8 4 -15 15 -15 25 0 10 -4 19 -9 19
-10 0 -27 39 -23 53 1 4 -3 7 -8 7 -6 0 -10 4 -10 10 0 17 -34 50 -52 50 -9 0
-19 3 -22 8 -5 8 -73 8 -96 -1 -28 -11 -105 -31 -112 -29 -5 1 -8 -3 -8 -9 0
-5 -3 -8 -8 -5 -4 2 -23 -3 -42 -11 -19 -9 -44 -18 -55 -20 -10 -2 -30 -11
-43 -19 -18 -12 -22 -12 -17 -3 5 8 -1 6 -12 -4 -11 -10 -24 -17 -29 -15 -5 1
-19 -3 -31 -10 -13 -7 -23 -9 -23 -5 0 4 -4 2 -9 -5 -4 -7 -18 -14 -29 -15
-12 -1 -22 -4 -22 -7 0 -3 -22 -14 -50 -25 -27 -11 -50 -23 -50 -28 0 -4 -4
-6 -9 -2 -5 3 -13 0 -17 -6 -10 -17 -12 -79 -2 -85 4 -3 8 -11 8 -19 0 -8 5
-26 12 -42 6 -15 12 -32 13 -38 2 -5 4 -17 6 -25 2 -8 6 -17 9 -20 11 -10 60
-153 55 -160 -3 -4 2 -11 11 -14 8 -3 12 -11 8 -17 -3 -6 -3 -14 2 -18 5 -3
14 -21 21 -38 9 -27 9 -33 -2 -33 -14 0 -73 114 -81 155 -2 11 -8 21 -14 23
-5 2 -10 8 -10 13 0 9 -42 109 -65 152 -10 20 -11 26 -2 22 6 -4 5 -1 -3 7 -8
7 -16 20 -18 28 -2 8 -8 18 -14 21 -5 3 -9 9 -8 13 1 4 -6 26 -16 49 -10 23
-17 45 -16 50 1 4 -2 7 -8 7 -5 0 -10 7 -10 15 0 8 -11 39 -25 69 -14 30 -25
64 -25 74 0 11 -8 29 -17 40 -15 17 -23 18 -53 10z m-993 -1225 c-4 -3 -1 -13
6 -22 11 -14 10 -14 -5 -2 -16 12 -16 31 -1 31 4 0 3 -3 0 -7z m1723 -391 c0
-4 13 -13 30 -20 16 -7 32 -23 36 -34 3 -12 15 -30 25 -41 10 -11 16 -23 14
-27 -3 -4 2 -13 10 -20 8 -7 15 -19 15 -26 0 -8 5 -14 10 -14 6 0 10 -9 10
-20 0 -11 3 -20 8 -20 4 0 13 -15 21 -32 8 -18 21 -41 29 -50 8 -10 11 -18 6
-18 -5 0 -4 -4 1 -8 11 -8 23 -28 66 -112 16 -33 34 -62 40 -65 5 -4 7 -10 4
-15 -3 -5 0 -14 7 -22 7 -7 33 -54 57 -103 24 -50 48 -97 53 -105 5 -8 14 -27
21 -42 6 -16 15 -28 19 -28 4 0 8 -7 8 -16 0 -9 8 -28 18 -42 10 -15 26 -43
34 -62 9 -19 26 -57 39 -85 13 -27 22 -53 21 -57 -1 -5 3 -8 9 -8 5 0 8 -4 5
-9 -4 -5 -3 -11 2 -13 10 -4 92 -199 92 -220 0 -10 4 -18 8 -18 5 0 9 -6 9
-13 0 -7 3 -26 7 -42 5 -22 4 -26 -4 -15 -5 8 -10 11 -10 5 -1 -5 -8 6 -17 25
-9 19 -15 38 -15 43 1 4 -3 7 -8 7 -6 0 -10 7 -10 15 0 8 -4 15 -9 15 -5 0
-17 18 -27 40 -10 22 -22 40 -27 40 -4 0 -5 5 -2 10 3 6 3 10 -2 10 -4 0 -14
15 -22 33 -8 17 -17 34 -21 37 -14 12 -59 98 -53 104 3 3 1 6 -5 6 -6 0 -21
21 -34 48 -13 26 -28 53 -35 60 -6 6 -15 22 -19 35 -4 12 -10 24 -13 27 -4 3
-20 32 -36 65 -17 33 -33 62 -37 65 -4 3 -26 44 -50 90 -23 47 -46 87 -50 88
-5 2 -6 8 -2 13 3 5 0 9 -5 9 -6 0 -11 7 -11 15 0 8 -5 15 -11 15 -5 0 -8 4
-4 9 3 5 1 12 -5 16 -6 4 -8 11 -5 16 4 5 1 9 -5 9 -6 0 -8 5 -5 10 3 6 1 10
-5 10 -6 0 -13 8 -17 18 -3 9 -27 62 -54 117 -26 55 -49 107 -51 115 -2 8 -7
18 -13 22 -5 4 -10 11 -11 15 -2 22 -17 63 -23 63 -4 0 -8 12 -9 27 -1 15 -7
32 -12 37 -14 14 -12 26 5 26 8 0 15 -3 15 -8z m-771 -1597 c10 -3 33 -19 52
-35 19 -16 40 -34 47 -40 6 -6 12 -8 12 -4 0 4 9 -3 20 -16 11 -12 17 -27 14
-32 -4 -6 -9 -6 -14 2 -8 13 -16 13 -42 -1 -11 -6 -18 -6 -18 0 0 5 -12 8 -26
6 -40 -4 -92 55 -85 98 0 4 -3 7 -9 7 -11 0 -1 32 14 42 6 4 12 1 14 -7 2 -8
11 -17 21 -20z"/>
</g>
</svg>
