<svg width="10" height="13" viewBox="0 0 10 13" fill="none" xmlns="http://www.w3.org/2000/svg">
<path d="M2.46 12.9999C2.14597 12.9981 1.83587 12.9299 1.55 12.7999C1.24083 12.6637 0.977413 12.4413 0.791223 12.1593C0.605032 11.8774 0.503933 11.5478 0.5 11.2099V2.78995C0.503933 2.45209 0.605032 2.12251 0.791223 1.84057C0.977413 1.55862 1.24083 1.33623 1.55 1.19995C1.90574 1.03191 2.30153 0.967195 2.69227 1.01316C3.083 1.05913 3.45297 1.21394 3.76 1.45995L8.86 5.66995C9.05999 5.82916 9.22151 6.03143 9.33252 6.2617C9.44353 6.49197 9.50118 6.74432 9.50118 6.99995C9.50118 7.25558 9.44353 7.50792 9.33252 7.73819C9.22151 7.96846 9.05999 8.17073 8.86 8.32995L3.76 12.5399C3.39238 12.8381 2.93331 13.0005 2.46 12.9999ZM2.46 2.99995V10.8999L7.32 6.99995L2.46 2.99995Z" fill="#F2B940"/>
</svg>
