<svg width="80" height="80" viewBox="0 0 80 80" fill="none" xmlns="http://www.w3.org/2000/svg">
<circle cx="40" cy="40" r="40" fill="url(#paint0_linear)"/>
<g clip-path="url(#clip0)">
<path d="M27.6311 41.7542C27.3075 41.7542 27.0452 42.0166 27.0452 42.3402V43.0924C27.0452 43.4159 27.3075 43.6783 27.6311 43.6783C27.9548 43.6783 28.217 43.4159 28.217 43.0924V42.3402C28.217 42.0166 27.9547 41.7542 27.6311 41.7542ZM57.9648 30.8251C57.7961 29.9833 57.4645 29.1114 56.9862 28.2724C56.8259 27.9913 56.468 27.8932 56.187 28.0535C55.9058 28.2138 55.8077 28.5716 55.968 28.8527C56.6223 30.0004 56.9681 31.2474 56.9169 32.2741C56.9134 32.3427 56.8758 32.3789 56.8431 32.3979C56.8372 32.4006 56.8316 32.4035 56.8258 32.4063C56.7942 32.4202 56.7504 32.4274 56.6995 32.3983C55.4801 31.7002 54.1806 30.1824 53.8114 29.7338C53.6641 29.5549 53.4251 29.4797 53.2019 29.5416C52.9787 29.6038 52.8129 29.7916 52.7793 30.0209C52.7275 30.3734 52.6382 30.7781 52.5238 31.1922C51.2402 30.8856 49.2519 29.867 48.2777 28.7558C48.1665 28.6289 48.0059 28.5561 47.8371 28.5561C47.6684 28.5561 47.5077 28.6289 47.3965 28.7558C46.4223 29.867 44.434 30.8856 43.1531 31.1915C43.036 30.7781 42.9467 30.3733 42.8949 30.0209C42.8612 29.7916 42.6955 29.6038 42.4723 29.5416C42.2493 29.4795 42.0102 29.5548 41.8628 29.7337C41.4935 30.1824 40.1939 31.7004 38.9745 32.3983C38.9238 32.4272 38.8783 32.4204 38.8476 32.4088C38.8394 32.4049 38.8313 32.4005 38.8229 32.3968C38.7829 32.3735 38.7609 32.3393 38.7584 32.2945C38.7423 32.0048 38.7567 31.7034 38.799 31.3958C38.8056 31.3677 38.8098 31.3389 38.8122 31.3098C39.0648 29.6627 40.103 27.8457 41.5551 26.6168C42.7818 25.5786 44.8451 24.4761 47.7085 25.1202C47.7932 25.1391 47.8809 25.1391 47.9656 25.1202C50.3291 24.5884 52.6105 25.2056 54.3903 26.8574C54.6273 27.0775 54.9981 27.0637 55.2184 26.8265C55.4385 26.5893 55.4247 26.2185 55.1874 25.9984C53.1483 24.1059 50.5426 23.3805 47.837 23.9489C45.2809 23.4125 42.786 24.0399 40.798 25.7223C39.2062 27.0695 38.072 28.9855 37.7066 30.8256C36.8039 31.203 36.116 31.9638 35.8259 32.883C34.8652 32.5728 33.8175 32.3801 32.6927 32.3338C32.6724 32.2435 32.6471 32.1546 32.6155 32.0677C32.2561 31.0803 31.2413 30.4752 29.9437 30.3392C29.0498 28.5359 27.4845 26.7862 25.6964 25.6064C24.4792 24.8033 22.8276 25.1429 22.0143 26.3631L20.5993 28.487C20.2296 29.0417 20.1385 29.7227 20.3493 30.3552C20.5595 30.9861 21.0391 31.4748 21.6654 31.696C22.5686 32.0151 23.345 32.427 23.9811 32.9235C23.4105 33.7468 23.2479 34.6081 23.5273 35.3756C23.6015 35.5796 23.7051 35.7691 23.8361 35.9434C22.8164 37.1302 22.1373 38.5042 21.8548 39.9001C20.7328 40.4488 20 41.5981 20 42.8601C20 44.5156 21.247 45.8993 22.8554 46.1234C23.415 47.6645 24.3591 49.027 25.5737 50.0988C24.6363 51.2081 23.9963 52.5283 23.711 53.9516C23.5984 54.5133 23.7429 55.0905 24.1072 55.5351C24.4744 55.9831 25.0171 56.2402 25.5961 56.2402H26.2139C26.5376 56.2402 26.7998 55.9778 26.7998 55.6542C26.7998 55.3306 26.5376 55.0683 26.2139 55.0683H25.5961C25.3697 55.0683 25.1574 54.9677 25.0137 54.7923C24.8727 54.6203 24.8168 54.3979 24.86 54.1819C25.1091 52.9391 25.6724 51.7871 26.4979 50.8217C28.103 51.931 30.0569 52.5831 32.1628 52.5831C34.2688 52.5831 36.2227 51.9309 37.8278 50.8216C38.6532 51.787 39.2165 52.939 39.4656 54.1818C39.5089 54.3978 39.4529 54.6203 39.312 54.7922C39.1682 54.9676 38.9559 55.0682 38.7295 55.0682H28.9365C28.6128 55.0682 28.3505 55.3306 28.3505 55.6541C28.3505 55.9777 28.6128 56.2401 28.9365 56.2401H38.7295C39.3085 56.2401 39.8512 55.9831 40.2184 55.535C40.5827 55.0904 40.7272 54.5132 40.6146 53.9515C40.3293 52.5282 39.6894 51.208 38.752 50.0987C39.6795 49.2802 40.4493 48.292 41.0106 47.1842C41.0891 47.2231 41.1771 47.2456 41.2705 47.2456H54.4039C54.9829 47.2456 55.5255 46.9886 55.8928 46.5406C56.2572 46.0959 56.4016 45.5188 56.2889 44.9571C56.0037 43.5338 55.3638 42.2136 54.4263 41.1043C55.6409 40.0326 56.585 38.67 57.1446 37.129C58.753 36.9049 60 35.5212 60 33.8656C60 32.5332 59.1796 31.3323 57.9648 30.8251ZM21.1719 42.8601C21.1719 42.2977 21.3989 41.7701 21.7784 41.3809C21.8504 41.6359 21.9873 41.8713 22.1809 42.0625C22.2213 42.1024 22.264 42.1391 22.3079 42.1739C22.2914 42.4035 22.2823 42.6332 22.2823 42.8601C22.2823 43.5301 22.3515 44.1845 22.4833 44.8166C21.7144 44.493 21.1719 43.7354 21.1719 42.8601ZM37.5851 32.2636C37.5863 32.2955 37.5867 32.3276 37.5884 32.3593C37.6067 32.6905 37.748 32.9932 37.979 33.2172C37.9652 33.4232 37.9575 33.6302 37.9569 33.8363C37.628 33.6431 37.2836 33.4653 36.9245 33.3046C37.0373 32.8984 37.2693 32.5367 37.5851 32.2636ZM31.4572 32.3427C28.6567 32.497 26.3442 33.5626 24.6752 35.0812C24.6577 35.0465 24.6416 35.0113 24.6285 34.975C24.4093 34.3728 24.8183 33.7334 25.0816 33.4057C25.1242 33.3527 25.1695 33.3005 25.2161 33.2488C25.2172 33.2477 25.2184 33.2468 25.2195 33.2456C25.2212 33.2438 25.2225 33.2418 25.2242 33.24C25.747 32.6629 26.5073 32.1745 27.3913 31.8527C29.145 31.2142 30.9829 31.4501 31.4572 32.3427ZM22.0557 30.5911C21.7728 30.4912 21.556 30.2702 21.461 29.9849C21.3653 29.6977 21.4067 29.3887 21.5745 29.1369L22.9898 27.0131C23.4464 26.328 24.3712 26.1359 25.0513 26.5847C26.4814 27.5282 27.7916 28.9227 28.6227 30.3559C28.0945 30.4195 27.5442 30.5499 26.9903 30.7514C26.1362 31.0623 25.3705 31.5119 24.7645 32.0499C24.016 31.4527 23.1078 30.9628 22.0557 30.5911ZM32.1628 51.4113C27.3609 51.4113 23.4541 47.5752 23.4541 42.8601C23.4541 42.7395 23.4577 42.6177 23.463 42.4958C26.7243 42.1964 30.3767 40.1498 31.9239 38.9199C32.0645 38.8081 32.2611 38.8081 32.4018 38.92C33.9489 40.1498 37.6014 42.1965 40.8627 42.4958C40.868 42.6177 40.8714 42.7394 40.8714 42.8601C40.8714 47.5752 36.9647 51.4113 32.1628 51.4113ZM41.3215 41.2284C41.2757 41.2735 41.1774 41.348 41.0305 41.335C38.17 41.0939 34.6891 39.2412 33.131 38.0026C32.846 37.776 32.5044 37.6627 32.1627 37.6627C31.8211 37.6627 31.4795 37.7759 31.1945 38.0026C29.6365 39.2412 26.1555 41.0938 23.2949 41.335C23.148 41.3477 23.0498 41.2734 23.004 41.2284C22.958 41.1829 22.8823 41.0846 22.8928 40.9366C22.9055 40.7588 22.926 40.5806 22.954 40.4026C22.9541 40.4015 22.9544 40.4004 22.9545 40.3993C23.1789 38.9763 23.8884 37.5633 25.0045 36.3896C25.0388 36.3622 25.0707 36.3305 25.0991 36.2945C25.1011 36.2919 25.1027 36.2891 25.1048 36.2865C26.7207 34.6433 29.148 33.4945 32.1626 33.4945C33.5784 33.4945 34.8643 33.7484 35.9979 34.1873C36.0342 34.2062 36.0728 34.2214 36.1134 34.2324C36.8857 34.5429 37.5852 34.9402 38.2047 35.4019C38.2391 35.4351 38.2773 35.4641 38.3188 35.4881C40.0135 36.7938 41.0852 38.5883 41.3707 40.3991C41.3709 40.4005 41.3712 40.4017 41.3713 40.4031C41.3993 40.5809 41.4198 40.7589 41.4325 40.9366C41.4432 41.0845 41.3675 41.1829 41.3215 41.2284ZM55.1399 45.1874C55.1832 45.4034 55.1273 45.6259 54.9863 45.7977C54.8427 45.9731 54.6303 46.0738 54.4039 46.0738H41.7439C43.1877 45.7464 44.2789 44.4739 44.3231 42.9556C45.4399 43.3756 46.6175 43.5887 47.8372 43.5887C49.9431 43.5887 51.897 42.9365 53.5021 41.8273C54.3276 42.7926 54.8909 43.9445 55.1399 45.1874ZM42.0178 42.1747C42.0619 42.1399 42.1041 42.1024 42.1447 42.0625C42.3383 41.8714 42.4752 41.6359 42.5472 41.3809C42.9267 41.7702 43.1538 42.2977 43.1538 42.8601C43.1538 43.7354 42.6112 44.493 41.8423 44.8166C41.9741 44.1845 42.0434 43.5301 42.0434 42.8601C42.0433 42.6332 42.0341 42.4038 42.0178 42.1747ZM47.8372 42.4168C46.5107 42.4168 45.2411 42.1325 44.0598 41.5723C43.7514 40.8531 43.1916 40.2527 42.4707 39.9002C42.0798 37.9682 40.9287 36.0781 39.167 34.6687C39.1416 34.4009 39.1284 34.1318 39.1284 33.8656C39.1284 33.7672 39.1308 33.6685 39.1342 33.5698C39.2802 33.5432 39.423 33.4921 39.5566 33.4156C40.4497 32.9044 41.3375 32.062 41.9862 31.3684C41.9991 31.4158 42.0122 31.4634 42.0257 31.511C42.1975 32.1175 42.8114 32.4781 43.4228 32.332C44.7255 32.0209 46.6027 31.1199 47.8372 29.9785C49.0716 31.1199 50.9488 32.0209 52.2515 32.332C52.8634 32.4783 53.4767 32.1176 53.6486 31.5109C53.6621 31.4634 53.6753 31.4158 53.6881 31.3684C54.3367 32.062 55.2243 32.9041 56.1173 33.4153C56.2513 33.492 56.3941 33.543 56.5401 33.5695C56.5435 33.6683 56.5459 33.7671 56.5459 33.8656C56.5459 38.5807 52.6391 42.4168 47.8372 42.4168ZM57.5167 35.8222C57.6485 35.19 57.7177 34.5356 57.7177 33.8656C57.7177 33.6478 57.7095 33.4288 57.6948 33.2109C57.9284 32.9817 58.0703 32.6718 58.0872 32.3325C58.0883 32.31 58.0882 32.287 58.0891 32.2645C58.5455 32.6601 58.8281 33.24 58.8281 33.8656C58.8281 34.7409 58.2856 35.4985 57.5167 35.8222ZM52.3688 32.7598C52.0452 32.7598 51.7829 33.0221 51.7829 33.3457V34.098C51.7829 34.4216 52.0452 34.6839 52.3688 34.6839C52.6925 34.6839 52.9548 34.4216 52.9548 34.098V33.3457C52.9548 33.0221 52.6925 32.7598 52.3688 32.7598ZM49.417 33.6896C49.173 33.477 48.8029 33.5024 48.5902 33.7463C48.4001 33.9645 48.1256 34.0897 47.8372 34.0897C47.5487 34.0897 47.2743 33.9645 47.0841 33.7463C46.8715 33.5024 46.5013 33.477 46.2574 33.6896C46.0134 33.9023 45.9881 34.2724 46.2006 34.5163C46.6134 34.9899 47.2099 35.2615 47.8371 35.2615C48.4643 35.2615 49.0608 34.9899 49.4736 34.5163C49.6862 34.2724 49.6609 33.9022 49.417 33.6896ZM33.7425 42.684C33.4984 42.4714 33.1284 42.4968 32.9158 42.7408C32.7256 42.959 32.4512 43.0841 32.1627 43.0841C31.8744 43.0841 31.5998 42.959 31.4097 42.7408C31.197 42.4968 30.8269 42.4715 30.583 42.684C30.3391 42.8966 30.3136 43.2667 30.5262 43.5107C30.939 43.9844 31.5355 44.256 32.1627 44.256C32.7898 44.256 33.3863 43.9844 33.7991 43.5107C34.0119 43.2667 33.9864 42.8966 33.7425 42.684ZM43.3055 32.7598C42.9819 32.7598 42.7195 33.0221 42.7195 33.3457V34.098C42.7195 34.4216 42.9819 34.6839 43.3055 34.6839C43.6291 34.6839 43.8914 34.4216 43.8914 34.098V33.3457C43.8914 33.0221 43.6291 32.7598 43.3055 32.7598ZM36.6945 41.7542C36.3708 41.7542 36.1085 42.0166 36.1085 42.3402V43.0924C36.1085 43.4159 36.3708 43.6783 36.6945 43.6783C37.0181 43.6783 37.2804 43.4159 37.2804 43.0924V42.3402C37.2804 42.0166 37.0181 41.7542 36.6945 41.7542Z" fill="white"/>
</g>
<defs>
<linearGradient id="paint0_linear" x1="11.4583" y1="-7.90908" x2="65.4425" y2="-17.7937" gradientUnits="userSpaceOnUse">
<stop stop-color="#19A3DC"/>
<stop offset="1" stop-color="#256EDC"/>
</linearGradient>
<clipPath id="clip0">
<rect width="40" height="40" fill="white" transform="translate(20 20)"/>
</clipPath>
</defs>
</svg>
