<svg width="80" height="80" viewBox="0 0 80 80" fill="none" xmlns="http://www.w3.org/2000/svg">
<circle cx="40" cy="40" r="40" fill="url(#paint0_linear)"/>
<g clip-path="url(#clip0)">
<path d="M44.3982 19.9219C39.2553 19.9219 35.0717 24.0634 35.0717 29.1538V36.3654C35.0717 38.7329 35.9774 40.8948 37.4633 42.5306C36.8395 43.8074 36.4816 45.203 36.4227 46.63C33.3367 47.7811 31.2917 50.6843 31.2917 53.9817C31.2917 56.0957 32.1725 58.1532 33.7084 59.6269C33.9068 59.8173 34.1674 59.922 34.443 59.922H50.0952C50.6787 59.922 51.1535 59.4492 51.1535 58.8685V42.7292C51.6958 42.1662 52.171 41.5314 52.5619 40.8332C52.72 40.5506 52.619 40.1935 52.3367 40.0357C52.0544 39.8777 51.6974 39.9784 51.5393 40.2607C51.3556 40.5887 51.1505 40.9003 50.9265 41.1951C50.607 40.1868 49.9682 39.3174 49.1284 38.7024C49.9746 37.88 50.6152 36.8402 50.9625 35.6717H51.6104C51.9528 35.6717 52.2745 35.5817 52.5528 35.4251V36.3654C52.5528 36.8674 52.5058 37.3703 52.413 37.8595C52.3529 38.1775 52.5619 38.4842 52.8796 38.5443C53.1976 38.6048 53.5043 38.3957 53.5644 38.0777C53.6709 37.5168 53.7247 36.9406 53.7247 36.3654V29.1538C53.725 24.0634 49.541 19.9219 44.3982 19.9219V19.9219ZM36.2435 36.3654V35.4251C36.5222 35.5817 36.8435 35.6717 37.1862 35.6717H37.8338C38.2431 37.0484 39.06 38.2459 40.14 39.1199C39.7094 39.4733 39.2889 39.8844 38.897 40.3437C38.5974 40.6952 38.3233 41.0645 38.0749 41.4484C36.9308 40.0608 36.2435 38.2911 36.2435 36.3654ZM37.5915 34.4998H37.1862C36.7745 34.4998 36.4395 34.1715 36.4395 33.7677V32.3719C36.4395 31.9681 36.7742 31.6397 37.1862 31.6397H37.5408V33.6521C37.5408 33.9389 37.5585 34.2218 37.5915 34.4998ZM49.9728 42.4128C49.5575 42.1396 49.0597 41.98 48.5251 41.98C47.0758 41.98 45.8963 43.1492 45.8963 44.5865V50.9711H40.4995C39.8062 50.9711 39.2196 51.4341 39.0399 52.064C38.0612 52.2419 37.3175 53.0903 37.3175 54.1068C37.3175 55.2521 38.2614 56.1842 39.422 56.1842H44.5578C44.8813 56.1842 45.1437 55.9217 45.1437 55.5982C45.1437 55.2744 44.8813 55.0123 44.5578 55.0123H42.1661V52.143H46.4822C46.806 52.143 47.0681 51.8809 47.0681 51.5571V44.5865C47.0681 43.7955 47.7218 43.1519 48.5251 43.1519C49.3283 43.1519 49.9817 43.7955 49.9817 44.5865V53.5776C49.9817 54.3687 49.3283 55.0123 48.5251 55.0123H47.3703C47.0465 55.0123 46.7843 55.2744 46.7843 55.5982C46.7843 55.9217 47.0465 56.1842 47.3703 56.1842H48.5251C49.0634 56.1842 49.5645 56.0224 49.9817 55.7459V58.7501H34.4873C33.2006 57.4986 32.4636 55.7633 32.4636 53.9817C32.4636 51.0575 34.3572 48.4971 37.1755 47.6099C37.4197 47.5333 37.5857 47.3069 37.5857 47.0511C37.5857 44.8819 38.3682 42.7698 39.7888 41.1042C40.2163 40.6028 40.69 40.1609 41.163 39.8069C42.1273 40.3345 43.2287 40.6345 44.3982 40.6345C45.7943 40.6345 47.0935 40.2063 48.1781 39.4739C49.191 40.0949 49.8883 41.1719 49.9728 42.4128ZM40.1599 52.5217C40.1565 52.501 40.155 52.4839 40.155 52.4714C40.155 52.2904 40.3094 52.143 40.4995 52.143H40.9942V55.0123H39.422C38.9077 55.0123 38.4893 54.6061 38.4893 54.1068C38.4893 53.6076 38.9077 53.2014 39.422 53.2014H39.5816C39.7534 53.2014 39.9166 53.126 40.028 52.9954C40.1391 52.8644 40.1873 52.6914 40.1599 52.5217ZM52.3569 33.7677C52.3569 34.1715 52.0221 34.5002 51.6104 34.5002H51.2048C51.2381 34.2218 51.2555 33.9392 51.2555 33.6521V31.6397H51.6104C52.0221 31.6397 52.3569 31.9681 52.3569 32.3719V33.7677ZM52.5531 30.7144C52.2745 30.5579 51.9528 30.4679 51.6104 30.4679H51.2555V29.96C51.2555 29.6933 51.1438 29.4354 50.9491 29.252C50.7547 29.0695 50.4934 28.974 50.2282 28.9878C50.1397 28.992 50.0509 28.9945 49.9643 28.9945C48.5199 28.9945 47.1454 28.4418 46.094 27.4387C45.9112 27.2638 45.6707 27.1677 45.4171 27.1677C45.1638 27.1677 44.9237 27.2638 44.7409 27.4384C44.3289 27.8311 43.8638 28.158 43.359 28.4094C43.0694 28.5538 42.9513 28.9054 43.0957 29.1953C43.2397 29.4846 43.5913 29.6027 43.8812 29.4583C44.4378 29.1812 44.9536 28.8288 45.4171 28.4094C46.6696 29.5438 48.277 30.1663 49.964 30.1663C50.0036 30.1663 50.0436 30.166 50.0836 30.1651V33.6521C50.0836 36.8561 47.5332 39.4629 44.3982 39.4629C41.2634 39.4629 38.7127 36.8561 38.7127 33.6521V30.1663H40.9491C41.2725 30.1663 41.535 29.9039 41.535 29.5804C41.535 29.2569 41.2725 28.9945 40.9491 28.9945H38.5189C37.9797 28.9945 37.5408 29.4312 37.5408 29.9683V30.4679H37.1862C36.8435 30.4679 36.5222 30.5579 36.2435 30.7144V29.1541C36.2435 24.7095 39.9017 21.0938 44.3982 21.0938C48.8946 21.0938 52.5531 24.7095 52.5531 29.1538V30.7144Z" fill="white"/>
<path d="M34.3444 44.5993C34.3444 43.9923 34.1082 43.4216 33.6797 42.9932C33.2506 42.5641 32.6802 42.3279 32.0736 42.3279C31.4669 42.3279 30.8962 42.5641 30.4671 42.9932L30.3362 43.1244L30.205 42.9932C29.7759 42.5641 29.2055 42.3279 28.5988 42.3279C27.9918 42.3279 27.4214 42.5641 26.9924 42.9932C26.5639 43.4219 26.328 43.9923 26.328 44.5996C26.328 45.2069 26.5639 45.7773 26.9924 46.2057L29.7051 48.9188C29.8738 49.0872 30.0978 49.18 30.3359 49.18C30.5742 49.18 30.7982 49.0872 30.967 48.9185L33.6797 46.2061C34.1082 45.7773 34.3444 45.2066 34.3444 44.5993ZM32.8511 45.3772L30.3359 47.8921L27.8212 45.3772C27.614 45.17 27.4999 44.8938 27.4999 44.5993C27.4999 44.3051 27.6137 44.0289 27.8212 43.8217C28.0288 43.6142 28.3049 43.4998 28.5988 43.4998C28.8924 43.4998 29.1686 43.6142 29.3764 43.822L29.9218 44.3671C30.1503 44.5959 30.5214 44.5959 30.7503 44.3671L31.2957 43.8217C31.5035 43.6142 31.7797 43.4998 32.0736 43.4998C32.3671 43.4998 32.6433 43.6139 32.8511 43.8217C33.0584 44.0289 33.1725 44.3051 33.1725 44.5993C33.1725 44.8938 33.0584 45.17 32.8511 45.3772Z" fill="white"/>
<path d="M40.8925 31.2434C40.5691 31.2434 40.3066 31.5059 40.3066 31.8293V32.6216C40.3066 32.9451 40.5691 33.2075 40.8925 33.2075C41.2163 33.2075 41.4785 32.9451 41.4785 32.6216V31.8293C41.4785 31.5059 41.2163 31.2434 40.8925 31.2434Z" fill="white"/>
<path d="M47.9038 33.2075C48.2273 33.2075 48.4898 32.9451 48.4898 32.6216V31.8293C48.4898 31.5059 48.2273 31.2434 47.9038 31.2434C47.5804 31.2434 47.3179 31.5059 47.3179 31.8293V32.6216C47.3179 32.9451 47.5804 33.2075 47.9038 33.2075Z" fill="white"/>
<path d="M44.2547 34.7629H44.9322C45.256 34.7629 45.5181 34.5004 45.5181 34.177C45.5181 33.8532 45.256 33.591 44.9322 33.591H44.45V32.2003C44.45 31.8765 44.1876 31.6144 43.8641 31.6144C43.5406 31.6144 43.2781 31.8765 43.2781 32.2003V33.7863C43.2781 34.3247 43.7164 34.7629 44.2547 34.7629Z" fill="white"/>
<path d="M42.0106 35.8984C41.7832 36.1285 41.785 36.4993 42.0151 36.7269C42.6722 37.3769 43.5352 37.7017 44.3983 37.7017C45.2613 37.7017 46.1243 37.3769 46.7814 36.7269C47.0115 36.4993 47.0136 36.1282 46.786 35.8981C46.5586 35.6683 46.1875 35.6661 45.9574 35.8938C45.0977 36.744 43.6988 36.744 42.8391 35.8935C42.6093 35.6661 42.2382 35.6683 42.0106 35.8984Z" fill="white"/>
</g>
<defs>
<linearGradient id="paint0_linear" x1="11.4583" y1="-7.90908" x2="65.4425" y2="-17.7937" gradientUnits="userSpaceOnUse">
<stop stop-color="#19A3DC"/>
<stop offset="1" stop-color="#256EDC"/>
</linearGradient>
<clipPath id="clip0">
<rect width="40" height="40" fill="white" transform="translate(20 20)"/>
</clipPath>
</defs>
</svg>
