<svg width="80" height="80" viewBox="0 0 80 80" fill="none" xmlns="http://www.w3.org/2000/svg">
<circle cx="40" cy="40" r="40" fill="url(#paint0_linear)"/>
<path d="M43.5228 39.236C43.8782 38.6204 44.0661 37.9212 44.0661 37.2141C44.0661 35.7696 43.2898 34.4244 42.0402 33.7034C41.7223 33.52 41.5325 33.1913 41.5325 32.8242C41.5325 32.4571 41.7223 32.1284 42.0405 31.9448C43.2899 31.2231 44.0661 29.8777 44.0661 28.4336C44.0661 27.7265 43.8782 27.0273 43.5227 26.4116C42.801 25.1621 41.4555 24.3859 40.0114 24.3859C39.3044 24.3859 38.6052 24.5738 37.989 24.9296C37.8304 25.0214 37.6605 25.068 37.4841 25.068C36.9949 25.068 36.4669 24.6788 36.4669 24.05C36.4669 22.9676 36.0454 21.9505 35.2807 21.1868C34.5164 20.4215 33.4993 20 32.4169 20C30.1833 20 28.3661 21.8168 28.3661 24.05C28.3661 24.6788 27.8382 25.068 27.3489 25.068C27.1725 25.068 27.0027 25.0214 26.8436 24.9294C26.4414 24.697 26.0079 24.537 25.5552 24.4534C25.2367 24.3948 24.9314 24.6053 24.8728 24.9235C24.8142 25.2418 25.0246 25.5473 25.3429 25.6059C25.6637 25.6651 25.9714 25.7788 26.2571 25.9438C26.5916 26.1375 26.9693 26.2399 27.349 26.2399C28.5561 26.2399 29.5381 25.2576 29.5381 24.0501C29.5381 22.4631 30.8296 21.172 32.417 21.172C33.1861 21.172 33.9087 21.4713 34.4522 22.0155C34.9957 22.5584 35.2951 23.2809 35.2951 24.0501C35.2951 25.2576 36.2772 26.2399 37.4842 26.2399C37.864 26.2399 38.2416 26.1375 38.5756 25.9442C39.0134 25.6915 39.5099 25.5579 40.0115 25.5579C41.0384 25.5579 41.995 26.1096 42.508 26.9977C42.7607 27.4355 42.8943 27.932 42.8943 28.4337C42.8943 29.4605 42.3426 30.4171 41.4547 30.93C40.7697 31.3252 40.3607 32.0333 40.3607 32.8243C40.3607 33.6153 40.7697 34.3234 41.4547 34.7185C42.3426 35.2309 42.8943 36.1871 42.8943 37.2141C42.8943 37.7158 42.7607 38.2123 42.5081 38.65C41.995 39.5382 41.0384 40.0899 40.0115 40.0899C39.5099 40.0899 39.0134 39.9563 38.5761 39.704C38.2416 39.5103 37.8639 39.4079 37.4841 39.4079C36.2771 39.4079 35.295 40.3902 35.295 41.5977C35.295 43.1852 34.0039 44.4766 32.4169 44.4766C31.6479 44.4766 30.925 44.1772 30.3815 43.6337C29.8376 43.089 29.538 42.3659 29.538 41.5977C29.538 40.3902 28.556 39.4079 27.3489 39.4079C26.9692 39.4079 26.5915 39.5103 26.2575 39.7036C25.8197 39.9563 25.3232 40.0899 24.8216 40.0899C23.7946 40.0899 22.8383 39.5383 22.3259 38.6501C22.0732 38.2123 21.9396 37.7158 21.9396 37.2141C21.9396 36.1871 22.4912 35.2309 23.3792 34.7186C24.0642 34.3234 24.4731 33.6153 24.4731 32.8243C24.4731 32.0333 24.0642 31.3252 23.3794 30.9302C22.4912 30.4171 21.9395 29.4605 21.9395 28.4337C21.9395 27.932 22.0731 27.4355 22.3257 26.9978C22.5877 26.5445 22.966 26.1719 23.4198 25.9203C23.7029 25.7634 23.805 25.4068 23.6482 25.1237C23.4913 24.8408 23.1348 24.7385 22.8516 24.8954C22.2119 25.2501 21.6793 25.7743 21.3111 26.4117C20.9556 27.0273 20.7677 27.7266 20.7677 28.4336C20.7677 29.8777 21.5439 31.2231 22.7936 31.945C23.1114 32.1284 23.3013 32.457 23.3013 32.8241C23.3013 33.1912 23.1115 33.5199 22.7936 33.7034C21.544 34.4243 20.7677 35.7695 20.7677 37.214C20.7677 37.9211 20.9556 38.6202 21.311 39.2357C22.032 40.4853 23.3772 41.2616 24.8217 41.2616C25.5287 41.2616 26.2279 41.0737 26.8441 40.718C27.0027 40.6262 27.1726 40.5796 27.3489 40.5796C27.8382 40.5796 28.3661 40.9688 28.3661 41.5976C28.3661 42.6785 28.7874 43.6957 29.5526 44.4619C30.3177 45.227 31.3349 45.6484 32.4169 45.6484C34.65 45.6484 36.4669 43.8312 36.4669 41.5976C36.4669 40.9688 36.9949 40.5796 37.4841 40.5796C37.6605 40.5796 37.8304 40.6262 37.9896 40.7183C38.6052 41.0737 39.3044 41.2616 40.0114 41.2616C41.4555 41.2617 42.801 40.4855 43.5228 39.236Z" fill="white"/>
<path d="M30.1862 27.6477C28.3686 27.6477 26.8899 29.1264 26.8899 30.944C26.8899 32.7615 28.3686 34.2403 30.1862 34.2403C32.0038 34.2403 33.4825 32.7615 33.4825 30.944C33.4825 29.1264 32.0038 27.6477 30.1862 27.6477ZM30.1862 33.0684C29.0148 33.0684 28.0618 32.1154 28.0618 30.944C28.0618 29.7725 29.0148 28.8196 30.1862 28.8196C31.3576 28.8196 32.3106 29.7725 32.3106 30.944C32.3106 32.1154 31.3576 33.0684 30.1862 33.0684Z" fill="white"/>
<path d="M38.9223 33.5487C38.9223 32.0708 37.7199 30.8684 36.242 30.8684C34.7641 30.8684 33.5617 32.0708 33.5617 33.5487C33.5617 35.0266 34.7641 36.229 36.242 36.229C37.7199 36.229 38.9223 35.0267 38.9223 33.5487ZM34.7335 33.5487C34.7335 32.717 35.4102 32.0403 36.2419 32.0403C37.0736 32.0403 37.7503 32.717 37.7503 33.5487C37.7503 34.3804 37.0736 35.0572 36.2419 35.0572C35.4102 35.0572 34.7335 34.3805 34.7335 33.5487Z" fill="white"/>
<path d="M31.9473 38.2423C30.888 38.2423 30.0262 37.3805 30.0262 36.3213C30.0262 35.9977 29.7639 35.7354 29.4403 35.7354C29.1167 35.7354 28.8544 35.9977 28.8544 36.3213C28.8544 38.0268 30.2418 39.4142 31.9473 39.4142C32.2709 39.4142 32.5332 39.1518 32.5332 38.8282C32.5332 38.5046 32.2709 38.2423 31.9473 38.2423Z" fill="white"/>
<path d="M56.6047 49.3747C56.9527 48.944 57.2311 48.4664 57.4344 47.9484C57.5525 47.6471 57.4041 47.3071 57.1029 47.1889C56.8013 47.0706 56.4616 47.2192 56.3434 47.5204C56.1284 48.0685 55.8063 48.5597 55.3859 48.9805C55.3852 48.9812 55.3844 48.9817 55.3838 48.9824C55.3827 48.9835 55.3819 48.9846 55.3809 48.9856L47.9957 56.3701C47.1853 57.1804 46.1081 57.6266 44.9623 57.6266C43.8165 57.6266 42.7393 57.1803 41.929 56.3701C40.2572 54.6984 40.2568 51.978 41.9274 50.305C41.9279 50.3046 41.9285 50.3041 41.929 50.3036C41.9298 50.3028 41.9304 50.302 41.9312 50.3012L49.3174 42.9158C50.1275 42.1053 51.2046 41.659 52.3503 41.659C53.4961 41.659 54.5734 42.1053 55.384 42.9159C56.0818 43.6137 56.5072 44.4998 56.6143 45.4786C56.6495 45.8003 56.9384 46.0327 57.2605 45.9974C57.5822 45.9621 57.8145 45.6728 57.7792 45.3512C57.6448 44.1222 57.0884 42.9631 56.2127 42.0874C55.1808 41.0555 53.8091 40.4873 52.3503 40.4873C51.0887 40.4873 49.8928 40.9131 48.9254 41.6954L46.6877 39.4578C46.4588 39.2289 46.0879 39.2289 45.8591 39.4578C45.6302 39.6866 45.6302 40.0576 45.8591 40.2863L48.0744 42.5017L47.056 43.5199L44.8408 41.3047C44.6119 41.0759 44.2409 41.0759 44.0121 41.3047C43.7833 41.5335 43.7833 41.9046 44.0121 42.1333L46.2273 44.3485L45.2089 45.3667L42.9938 43.1517C42.7649 42.9228 42.394 42.9228 42.1652 43.1517C41.9363 43.3805 41.9363 43.7515 42.1652 43.9803L44.3802 46.1953L43.3619 47.2136L41.1469 44.9986C40.918 44.7698 40.547 44.7698 40.3182 44.9986C40.0894 45.2274 40.0894 45.5985 40.3182 45.8272L42.5332 48.0422L41.5148 49.0605L39.2998 46.8456C39.071 46.6167 38.7 46.6167 38.4713 46.8456C38.2424 47.0744 38.2424 47.4454 38.4713 47.6742L40.7088 49.9117C38.9813 52.0548 39.1115 55.2095 41.1006 57.1985C42.1323 58.2302 43.5038 58.7983 44.9626 58.7983C46.2241 58.7983 47.42 58.3727 48.3877 57.5906L50.6253 59.8283C50.7398 59.9428 50.8897 59.9999 51.0397 59.9999C51.1896 59.9999 51.3396 59.9428 51.4541 59.8283C51.6829 59.5995 51.6829 59.2285 51.4541 58.9997L49.2388 56.7845L50.2572 55.7662L52.4723 57.9813C52.5868 58.0958 52.7367 58.153 52.8867 58.153C53.0366 58.153 53.1866 58.0958 53.3011 57.9813C53.5299 57.7525 53.5299 57.3815 53.3011 57.1528L51.0859 54.9376L52.1043 53.9193L54.3194 56.1344C54.4338 56.2488 54.5838 56.306 54.7338 56.306C54.8837 56.306 55.0337 56.2488 55.1481 56.1344C55.377 55.9056 55.377 55.5346 55.1481 55.3058L52.9331 53.0907L53.9515 52.0724L56.1664 54.2874C56.2809 54.4019 56.4308 54.4591 56.5808 54.4591C56.7307 54.4591 56.8807 54.4019 56.9952 54.2874C57.224 54.0586 57.224 53.6876 56.9952 53.4588L54.7802 51.2438L55.7986 50.2256L58.0134 52.4404C58.1279 52.5548 58.2779 52.6121 58.4278 52.6121C58.5777 52.6121 58.7277 52.5549 58.8422 52.4404C59.071 52.2116 59.071 51.8406 58.8422 51.6118L56.6047 49.3747Z" fill="white"/>
<path d="M53.2267 45.6276C53.8831 45.6616 54.6996 45.7037 55.4589 44.9444C55.6878 44.7156 55.6878 44.3447 55.459 44.1158C55.2301 43.887 54.8591 43.887 54.6304 44.1158C54.257 44.4892 53.9128 44.4897 53.2873 44.4574C52.631 44.4235 51.8144 44.3813 51.055 45.1406C50.2957 45.8999 50.3379 46.7166 50.3718 47.3729C50.4041 47.9987 50.4036 48.3427 50.0302 48.7161C49.6568 49.0895 49.3127 49.09 48.6871 49.0576C48.0309 49.0237 47.2141 48.9816 46.4548 49.7408C45.6955 50.5002 45.7376 51.3169 45.7715 51.9732C45.8038 52.599 45.8032 52.9431 45.4298 53.3165C45.0563 53.69 44.7127 53.6906 44.0865 53.6583C43.4302 53.6245 42.6135 53.5823 41.8541 54.3417C41.6253 54.5705 41.6253 54.9415 41.8541 55.1703C41.9686 55.2847 42.1186 55.3419 42.2685 55.3419C42.4184 55.3419 42.5684 55.2847 42.6829 55.1703C43.0563 54.7969 43.4001 54.7963 44.0262 54.8286C44.6821 54.8622 45.4991 54.9046 46.2585 54.1451C47.0179 53.3858 46.9758 52.569 46.9419 51.9128C46.9096 51.2869 46.9102 50.9429 47.2835 50.5694C47.6569 50.1961 48.0009 50.1956 48.6267 50.2279C49.283 50.2618 50.0997 50.304 50.8588 49.5447C51.6183 48.7854 51.5761 47.9686 51.5422 47.3124C51.5098 46.6865 51.5104 46.3426 51.8837 45.9692C52.257 45.5958 52.601 45.5952 53.2267 45.6276Z" fill="white"/>
<path d="M31.4873 49.5212C29.8583 49.5212 28.5331 50.8465 28.5331 52.4755C28.5331 54.1044 29.8583 55.4297 31.4873 55.4297C33.1163 55.4297 34.4416 54.1044 34.4416 52.4755C34.4416 50.8465 33.1163 49.5212 31.4873 49.5212ZM31.4873 54.2579C30.5045 54.2579 29.705 53.4583 29.705 52.4755C29.705 51.4927 30.5045 50.6932 31.4873 50.6932C32.4701 50.6932 33.2697 51.4927 33.2697 52.4755C33.2697 53.4583 32.4701 54.2579 31.4873 54.2579Z" fill="white"/>
<path d="M26.3001 45.1566C25.1223 45.1566 24.1642 46.1148 24.1642 47.2926C24.1642 48.4704 25.1224 49.4285 26.3001 49.4285C27.4779 49.4285 28.4361 48.4703 28.4361 47.2926C28.4361 46.1148 27.4779 45.1566 26.3001 45.1566ZM26.3001 48.2567C25.7685 48.2567 25.3361 47.8242 25.3361 47.2926C25.3361 46.7611 25.7686 46.3286 26.3001 46.3286C26.8317 46.3286 27.2642 46.7611 27.2642 47.2926C27.2642 47.8242 26.8317 48.2567 26.3001 48.2567Z" fill="white"/>
<path d="M58.6461 29.8217H57.0384C56.9364 29.0823 56.6449 28.4027 56.2137 27.834L57.3515 26.6963C57.5803 26.4675 57.5803 26.0965 57.3515 25.8677C57.1227 25.6389 56.7517 25.6388 56.5228 25.8677L55.385 27.0053C54.8163 26.5741 54.1368 26.2826 53.3974 26.1806V24.573C53.3974 24.2494 53.1351 23.9871 52.8114 23.9871C52.4877 23.9871 52.2255 24.2494 52.2255 24.573V26.1807C51.486 26.2827 50.8064 26.5742 50.2378 27.0054L49.1001 25.8677C48.8712 25.6389 48.5002 25.6389 48.2714 25.8677C48.0426 26.0965 48.0426 26.4675 48.2714 26.6963L49.4092 27.834C48.978 28.4027 48.6865 29.0823 48.5845 29.8217H46.9769C46.6532 29.8217 46.3909 30.0841 46.3909 30.4077C46.3909 30.7313 46.6532 30.9936 46.9769 30.9936H48.5845C48.6865 31.7331 48.978 32.4127 49.4092 32.9814L48.2714 34.1191C48.0426 34.3479 48.0426 34.7189 48.2714 34.9477C48.3859 35.0621 48.5358 35.1193 48.6858 35.1193C48.8357 35.1193 48.9857 35.0621 49.1002 34.9477L50.2379 33.81C50.8066 34.2412 51.4861 34.5327 52.2256 34.6347V36.2424C52.2256 36.566 52.4878 36.8283 52.8115 36.8283C53.1352 36.8283 53.3974 36.566 53.3974 36.2424V34.6347C54.1369 34.5327 54.8165 34.2412 55.3851 33.81L56.5228 34.9477C56.6373 35.0621 56.7873 35.1193 56.9372 35.1193C57.0871 35.1193 57.2371 35.0621 57.3516 34.9477C57.5804 34.7189 57.5804 34.3478 57.3516 34.1191L56.2138 32.9814C56.645 32.4127 56.9365 31.7331 57.0385 30.9936H58.6462C58.9699 30.9936 59.2321 30.7313 59.2321 30.4077C59.2321 30.0841 58.9697 29.8217 58.6461 29.8217ZM52.8113 33.5041C51.104 33.5041 49.7149 32.115 49.7149 30.4077C49.7149 28.7003 51.1039 27.3113 52.8113 27.3113C54.5188 27.3113 55.9077 28.7003 55.9077 30.4077C55.9077 32.115 54.5188 33.5041 52.8113 33.5041Z" fill="white"/>
<defs>
<linearGradient id="paint0_linear" x1="11.4583" y1="-7.90908" x2="65.4425" y2="-17.7937" gradientUnits="userSpaceOnUse">
<stop stop-color="#19A3DC"/>
<stop offset="1" stop-color="#256EDC"/>
</linearGradient>
</defs>
</svg>
