<svg width="80" height="80" viewBox="0 0 80 80" fill="none" xmlns="http://www.w3.org/2000/svg">
<circle cx="40" cy="40" r="40" fill="url(#paint0_linear)"/>
<g clip-path="url(#clip0)">
<path d="M38.0474 43.4869H37.0078L37.0852 43.3676C37.3034 43.0311 37.3345 42.665 37.1706 42.3631C37.1474 42.3205 37.1202 42.2813 37.0909 42.244C37.9576 41.268 38.5914 40.0768 38.9034 38.7603H39.6897C40.6589 38.7603 41.4475 37.9718 41.4475 37.0025V34.8354C41.4475 33.8661 40.6589 33.0776 39.6897 33.0776H39.1216V28.3187C39.1216 25.7932 37.0886 23.7386 34.5896 23.7386H31.5826C30.4373 23.7386 29.3905 24.1711 28.5918 24.8816H26.8236C24.8569 24.8816 23.2569 26.4978 23.2569 28.4843V33.0775H22.6887C21.7195 33.0775 20.9309 33.866 20.9309 34.8353V37.0024C20.9309 37.9717 21.7195 38.7602 22.6887 38.7602H23.475C23.787 40.0767 24.4208 41.268 25.2876 42.2439C25.2582 42.2811 25.2309 42.3204 25.2078 42.3629C25.0437 42.6647 25.0747 43.0308 25.2929 43.3674L25.3704 43.4868H24.331C21.9429 43.4869 20 45.4297 20 47.8178V56.2713C20 56.8295 20.4541 57.2834 21.0121 57.2834H34.6874C35.0111 57.2834 35.2734 57.0211 35.2734 56.6975C35.2734 56.3739 35.0111 56.1116 34.6874 56.1116H23.8569V51.3475C23.8569 51.0239 23.5947 50.7616 23.271 50.7616C22.9474 50.7616 22.6851 51.0239 22.6851 51.3475V56.1116H21.1719V47.8178C21.1719 46.0759 22.5891 44.6587 24.331 44.6587H26.1303L26.3047 44.9277C26.4808 45.1993 26.8437 45.2766 27.1151 45.1006C27.3866 44.9246 27.464 44.5617 27.2879 44.2901L26.8349 43.5915C27.8735 44.2838 29.0814 44.7366 30.3814 44.8702C30.3622 44.8956 30.3427 44.9205 30.3249 44.9479L29.0197 46.961L28.8585 46.7123C28.6823 46.4408 28.3195 46.3634 28.0481 46.5395C27.7765 46.7156 27.6991 47.0784 27.8752 47.35L28.1555 47.7821C28.3632 48.1026 28.6781 48.2864 29.0195 48.2864H29.0197C29.361 48.2864 29.676 48.1027 29.8839 47.7822L30.6034 46.6726V52.5839C30.6034 52.9075 30.8657 53.1699 31.1893 53.1699C31.513 53.1699 31.7753 52.9075 31.7753 52.5839V46.6727L32.4946 47.7823C32.7025 48.1028 33.0174 48.2865 33.3589 48.2864H33.3591C33.7006 48.2864 34.0155 48.1025 34.2232 47.7821L36.2483 44.6587H38.0476C39.7895 44.6587 41.2067 46.0759 41.2067 47.8178V56.1116H39.6934V51.3475C39.6934 51.0239 39.4312 50.7616 39.1075 50.7616C38.7838 50.7616 38.5216 51.0239 38.5216 51.3475V56.1116H37.8906C37.5669 56.1116 37.3046 56.3739 37.3046 56.6975C37.3046 57.0211 37.5669 57.2834 37.8906 57.2834H41.3662C41.9244 57.2834 42.3783 56.8295 42.3783 56.2713V47.8178C42.3783 45.4297 40.4355 43.4869 38.0474 43.4869ZM39.1216 36.8903V34.2495H39.6897C40.0128 34.2495 40.2756 34.5123 40.2756 34.8354V37.0025C40.2756 37.3256 40.0128 37.5884 39.6897 37.5884H39.0913C39.1109 37.3583 39.1216 37.1255 39.1216 36.8903ZM22.6887 37.5884C22.3655 37.5884 22.1027 37.3256 22.1027 37.0025V34.8354C22.1027 34.5123 22.3655 34.2495 22.6887 34.2495H23.2568V36.8903C23.2568 37.1255 23.2675 37.3583 23.2872 37.5884H22.6887ZM31.5826 24.9105H34.5896C36.4424 24.9105 37.9498 26.4394 37.9498 28.3187V28.7319C37.6103 28.2903 37.1995 27.8993 36.719 27.5645C35.3627 26.6194 33.4505 26.1199 31.1893 26.1199C30.3643 26.1199 29.5864 26.1872 28.8644 26.3175C29.4759 25.4656 30.4664 24.9105 31.5826 24.9105ZM24.4287 28.4844C24.4287 27.144 25.5031 26.0536 26.8236 26.0536H27.6457C27.5258 26.2654 27.4223 26.4878 27.3365 26.7189C26.712 26.9414 26.149 27.2235 25.6595 27.5646C25.179 27.8994 24.7681 28.2904 24.4287 28.732V28.4844ZM33.3588 46.9611L32.0535 44.9478C32.0357 44.9204 32.0162 44.8956 31.997 44.8703C33.2969 44.7368 34.5047 44.284 35.5432 43.5918L33.3588 46.9611ZM31.1893 43.7397C27.4615 43.7397 24.4287 40.6671 24.4287 36.8903V32.4645C24.4287 30.73 25.0683 29.4049 26.3295 28.5261C27.4883 27.7186 29.1688 27.2918 31.1893 27.2918C33.2098 27.2918 34.8903 27.7186 36.049 28.5261C37.3103 29.4049 37.9498 30.7299 37.9498 32.4645V36.8903C37.9498 40.6671 34.9171 43.7397 31.1893 43.7397Z" fill="white"/>
<path d="M58.9228 36.428C59.308 35.6953 59.5265 34.8617 59.5265 33.9778V32.3032C59.5265 29.6949 57.6275 27.5231 55.1398 27.094C55.1462 27.0008 55.1508 26.9068 55.1508 26.8119C55.1508 24.5537 53.3136 22.7166 51.0555 22.7166C48.7973 22.7166 46.96 24.5537 46.96 26.8119C46.96 26.9069 46.9646 27.0008 46.971 27.0941C44.4833 27.5233 42.5845 29.695 42.5845 32.3033V33.9779C42.5845 34.8617 42.8029 35.6953 43.1882 36.4281C42.5561 36.6946 42.1111 37.3206 42.1111 38.0486V39.5166C42.1111 40.4859 42.8997 41.2744 43.869 41.2744H44.5266C44.785 42.4596 45.3882 43.5243 46.2296 44.37C44.107 45.6854 42.7938 47.9053 42.7938 50.5767V56.2721C42.7938 56.8302 43.2478 57.2842 43.8058 57.2842H58.3052C58.8633 57.2842 59.3173 56.8302 59.3173 56.2721V50.5767C59.3173 47.9054 58.0041 45.6854 55.8813 44.37C56.7228 43.5244 57.3261 42.4597 57.5845 41.2744H58.2423C59.2115 41.2744 60.0001 40.4859 60.0001 39.5166V38.0487C59.9999 37.3206 59.555 36.6946 58.9228 36.428ZM51.0555 23.8885C52.6675 23.8885 53.9789 25.2 53.9789 26.812C53.9789 26.8805 53.9765 26.9485 53.9717 27.0158H52.4354C51.958 27.0158 51.4955 27.0804 51.0552 27.1997C50.6153 27.0802 50.1529 27.0158 49.6756 27.0158H48.1391C48.1343 26.9484 48.1319 26.8805 48.1319 26.812C48.1319 25.2 49.4434 23.8885 51.0555 23.8885ZM43.8689 40.1025C43.5457 40.1025 43.2829 39.8396 43.2829 39.5166V38.0486C43.2829 37.7256 43.5457 37.4627 43.8689 37.4627H44.3855V39.9669C44.3855 40.0123 44.3881 40.0573 44.3891 40.1025H43.8689ZM44.3982 36.1799C43.9925 35.5427 43.7562 34.7877 43.7562 33.9779V32.3033H43.7563C43.7563 30.0339 45.6027 28.1876 47.8721 28.1876H49.121C48.1744 28.9514 47.4969 30.0344 47.2509 31.2712C45.6111 32.367 44.508 34.1492 44.3982 36.1799ZM56.4033 46.2597C57.5438 47.387 58.1454 48.87 58.1454 50.5767V56.1124H56.8793V51.8401C56.8793 51.5165 56.617 51.2542 56.2934 51.2542C55.9697 51.2542 55.7074 51.5165 55.7074 51.8401V56.1124H46.4035V51.8401C46.4035 51.5165 46.1412 51.2542 45.8175 51.2542C45.4939 51.2542 45.2316 51.5165 45.2316 51.8401V56.1124H43.9656V50.5767C43.9656 48.87 44.5671 47.3868 45.7077 46.2596C45.7197 47.9435 47.0928 49.3097 48.7795 49.3097C49.3931 49.3097 49.9775 49.1263 50.4695 48.8021V51.7015C50.4695 52.0251 50.7318 52.2875 51.0555 52.2875C51.3792 52.2875 51.6414 52.0251 51.6414 51.7015V48.8021C52.1334 49.1263 52.7177 49.3097 53.3313 49.3097C55.0179 49.3097 56.3912 47.9435 56.4033 46.2597ZM46.8789 46.2372C46.8789 45.8449 46.9996 45.481 47.2043 45.178C48.293 45.9183 49.6214 46.3554 51.0552 46.3554C52.4892 46.3554 53.8177 45.9183 54.9066 45.1779C55.1112 45.4808 55.232 45.8448 55.232 46.2372C55.232 47.2852 54.3794 48.1379 53.3313 48.1379C52.5784 48.1379 51.8956 47.6923 51.5917 47.0027C51.498 46.7903 51.2876 46.6531 51.0555 46.6531C50.8233 46.6531 50.613 46.7902 50.5193 47.0027C50.2153 47.6923 49.5324 48.1379 48.7795 48.1379C47.7315 48.1379 46.8789 47.2852 46.8789 46.2372ZM56.7054 33.1164C56.5278 32.8458 56.1644 32.7706 55.894 32.9481C55.6234 33.1257 55.5481 33.4889 55.7258 33.7595C56.2673 34.5842 56.5535 35.5364 56.5535 36.5132V39.967C56.5535 42.8434 54.087 45.1836 51.0552 45.1836C48.0237 45.1836 45.5574 42.8434 45.5574 39.967V36.5132C45.5574 33.6368 48.0237 31.2968 51.0552 31.2968C52.1002 31.2967 53.1167 31.5759 53.9948 32.1042C54.272 32.2709 54.632 32.1814 54.7989 31.9041C54.9657 31.6268 54.8762 31.2668 54.5988 31.1C53.5384 30.4621 52.313 30.1249 51.0552 30.1249C50.2348 30.1249 49.4492 30.2689 48.7228 30.5296C49.3866 29.1459 50.801 28.1876 52.4354 28.1876H54.2388C56.5083 28.1876 58.3546 30.0339 58.3546 32.3033V33.9779C58.3546 34.786 58.1193 35.5395 57.7152 36.1759C57.6557 35.089 57.3102 34.0376 56.7054 33.1164ZM58.828 39.5166C58.828 39.8396 58.5652 40.1025 58.2421 40.1025H57.7218C57.7228 40.0573 57.7254 40.0123 57.7254 39.9669V37.4627H58.2421C58.5652 37.4627 58.828 37.7256 58.828 38.0486V39.5166Z" fill="white"/>
<path d="M51.5244 39.1265V38.885C51.5244 38.5613 51.262 38.299 50.9384 38.299C50.6148 38.299 50.3525 38.5613 50.3525 38.8849V39.3878C50.3525 39.8883 50.758 40.2955 51.2566 40.2955H51.4664C51.7901 40.2955 52.0523 40.0332 52.0523 39.7096C52.0523 39.4055 51.8208 39.1556 51.5244 39.1265Z" fill="white"/>
<path d="M48.4179 37.4935C48.0942 37.4935 47.8319 37.7559 47.8319 38.0795V38.8303C47.8319 39.1539 48.0942 39.4163 48.4179 39.4163C48.7415 39.4163 49.0038 39.1539 49.0038 38.8303V38.0795C49.0038 37.7559 48.7415 37.4935 48.4179 37.4935Z" fill="white"/>
<path d="M53.6929 37.4935C53.3692 37.4935 53.107 37.7559 53.107 38.0795V38.8303C53.107 39.1539 53.3692 39.4163 53.6929 39.4163C54.0166 39.4163 54.2788 39.1539 54.2788 38.8303V38.0795C54.2788 37.7559 54.0165 37.4935 53.6929 37.4935Z" fill="white"/>
<path d="M52.8059 41.4476C52.5056 41.3273 52.1644 41.4732 52.0442 41.7737C51.8926 42.1523 51.5325 42.397 51.127 42.397C50.7213 42.397 50.3613 42.1525 50.2098 41.7739C50.0896 41.4734 49.7486 41.3274 49.4482 41.4476C49.1477 41.5679 49.0017 41.9089 49.1219 42.2093C49.4524 43.0353 50.2394 43.5689 51.127 43.5689C52.0142 43.5689 52.8013 43.0354 53.132 42.2096C53.2523 41.909 53.1064 41.5679 52.8059 41.4476Z" fill="white"/>
<path d="M52.3714 32.4551H49.7394C49.4157 32.4551 49.1535 32.7174 49.1535 33.041C49.1535 33.3646 49.4157 33.6269 49.7394 33.6269H52.3714C52.695 33.6269 52.9573 33.3646 52.9573 33.041C52.9573 32.7174 52.695 32.4551 52.3714 32.4551Z" fill="white"/>
<path d="M53.6877 34.4729H48.4233C48.0996 34.4729 47.8373 34.7352 47.8373 35.0588C47.8373 35.3825 48.0997 35.6448 48.4233 35.6448H53.6877C54.0114 35.6448 54.2736 35.3824 54.2736 35.0588C54.2736 34.7352 54.0114 34.4729 53.6877 34.4729Z" fill="white"/>
<path d="M48.7114 40.4114C48.4698 40.1962 48.0994 40.2178 47.8842 40.4596L47.0642 41.3808C46.849 41.6225 46.8706 41.9928 47.1123 42.208C47.2239 42.3074 47.3631 42.3563 47.5016 42.3563C47.663 42.3563 47.8237 42.2899 47.9395 42.1599L48.7595 41.2386C48.9747 40.997 48.9531 40.6266 48.7114 40.4114Z" fill="white"/>
<path d="M55.0464 41.3811L54.2265 40.4599C54.0112 40.2182 53.6409 40.1965 53.3992 40.4118C53.1575 40.6269 53.1359 40.9973 53.3511 41.239L54.1711 42.1602C54.2869 42.2903 54.4476 42.3566 54.609 42.3566C54.7475 42.3566 54.8867 42.3077 54.9983 42.2083C55.24 41.9932 55.2615 41.6228 55.0464 41.3811Z" fill="white"/>
<path d="M31.6767 35.7775H31.2875V34.6522C31.2875 34.3286 31.0252 34.0662 30.7015 34.0662C30.3779 34.0662 30.1156 34.3286 30.1156 34.6522V35.9466C30.1156 36.4995 30.5633 36.9493 31.1136 36.9493H31.6767C32.0004 36.9493 32.2626 36.687 32.2626 36.3634C32.2626 36.0398 32.0004 35.7775 31.6767 35.7775Z" fill="white"/>
<path d="M27.7729 33.2752C27.4492 33.2752 27.187 33.5376 27.187 33.8611V34.8337C27.187 35.1573 27.4492 35.4197 27.7729 35.4197C28.0966 35.4197 28.3588 35.1573 28.3588 34.8337V33.8611C28.3588 33.5376 28.0966 33.2752 27.7729 33.2752Z" fill="white"/>
<path d="M34.6055 33.2752C34.2818 33.2752 34.0195 33.5376 34.0195 33.8611V34.8337C34.0195 35.1573 34.2818 35.4197 34.6055 35.4197C34.9291 35.4197 35.1914 35.1573 35.1914 34.8337V33.8611C35.1914 33.5376 34.9291 33.2752 34.6055 33.2752Z" fill="white"/>
<path d="M33.4275 28.4067H28.9507C28.627 28.4067 28.3647 28.669 28.3647 28.9926C28.3647 29.3162 28.6271 29.5785 28.9507 29.5785H33.4275C33.7512 29.5785 34.0135 29.3162 34.0135 28.9926C34.0135 28.669 33.7512 28.4067 33.4275 28.4067Z" fill="white"/>
<path d="M34.6659 30.5019H27.7126C27.3889 30.5019 27.1267 30.7642 27.1267 31.0878C27.1267 31.4114 27.3889 31.6738 27.7126 31.6738H34.6659C34.9896 31.6738 35.2519 31.4114 35.2519 31.0878C35.2519 30.7642 34.9896 30.5019 34.6659 30.5019Z" fill="white"/>
<path d="M33.2862 39.9688C33.0987 39.705 32.7328 39.6431 32.4691 39.8306C32.12 40.0786 31.7094 40.2098 31.282 40.2098C30.7955 40.2098 30.3225 40.0349 29.9501 39.7172C29.7039 39.5072 29.334 39.5367 29.1241 39.7827C28.9141 40.0288 28.9434 40.3987 29.1897 40.6088C29.774 41.1071 30.517 41.3817 31.282 41.3817C31.9542 41.3817 32.5993 41.1756 33.1479 40.7859C33.4117 40.5985 33.4736 40.2327 33.2862 39.9688Z" fill="white"/>
<path d="M28.9503 37.7883C28.7989 37.5023 28.4446 37.3931 28.1583 37.5446C26.7408 38.2952 26.2346 39.6921 26.2137 39.7512C26.106 40.0564 26.2661 40.3911 26.5712 40.4988C26.6358 40.5216 26.7016 40.5323 26.7663 40.5323C27.0078 40.5323 27.2339 40.3819 27.3188 40.1412C27.3224 40.1311 27.7053 39.1105 28.7068 38.5803C28.9927 38.4289 29.1018 38.0743 28.9503 37.7883Z" fill="white"/>
<path d="M36.1646 39.7512C36.1438 39.692 35.6374 38.2952 34.22 37.5445C33.934 37.3932 33.5794 37.5023 33.428 37.7882C33.2765 38.0742 33.3856 38.4288 33.6716 38.5802C34.6689 39.1083 35.0525 40.1223 35.0605 40.1438C35.1461 40.383 35.3714 40.5323 35.6121 40.5323C35.6768 40.5323 35.7427 40.5215 35.8071 40.4987C36.1123 40.391 36.2723 40.0563 36.1646 39.7512Z" fill="white"/>
</g>
<defs>
<linearGradient id="paint0_linear" x1="11.4583" y1="-7.90908" x2="65.4425" y2="-17.7937" gradientUnits="userSpaceOnUse">
<stop stop-color="#19A3DC"/>
<stop offset="1" stop-color="#256EDC"/>
</linearGradient>
<clipPath id="clip0">
<rect width="40" height="40" fill="white" transform="translate(20 20)"/>
</clipPath>
</defs>
</svg>
