<svg width="80" height="80" viewBox="0 0 80 80" fill="none" xmlns="http://www.w3.org/2000/svg">
<circle cx="40" cy="40" r="40" fill="url(#paint0_linear)"/>
<path d="M36.8751 55H38.1251V56.25H36.8751V55ZM38.7501 29.375C38.7501 29.2589 38.7177 29.1452 38.6567 29.0464C38.5957 28.9477 38.5084 28.8679 38.4046 28.816L35.9046 27.566L35.3455 28.684L36.7275 29.375L35.3455 30.066L35.9046 31.184L38.4046 29.934C38.5084 29.8821 38.5957 29.8023 38.6567 29.7036C38.7177 29.6048 38.7501 29.4911 38.7501 29.375ZM41.5955 29.934L44.0955 31.184L44.6546 30.066L43.2726 29.375L44.6546 28.684L44.0955 27.566L41.5955 28.816C41.4917 28.8679 41.4044 28.9477 41.3434 29.0464C41.2824 29.1452 41.2501 29.2589 41.2501 29.375C41.2501 29.4911 41.2824 29.6048 41.3434 29.7036C41.4044 29.8023 41.4917 29.8821 41.5955 29.934ZM22.6445 28.6371C22.6149 28.7999 22.6252 28.9675 22.6745 29.1254C22.7239 29.2834 22.8108 29.427 22.9278 29.544L23.7501 30.3662L28.1251 25.9912V23.4375C28.1251 23.3546 28.0921 23.2751 28.0335 23.2165C27.9749 23.1579 27.8954 23.125 27.8126 23.125C27.7297 23.125 27.6502 23.1579 27.5916 23.2165C27.533 23.2751 27.5001 23.3546 27.5001 23.4375V23.75C27.5001 23.8631 27.4694 23.9741 27.4112 24.0712C27.3531 24.1682 27.2697 24.2477 27.17 24.301C27.0702 24.3544 26.9579 24.3797 26.8449 24.3743C26.7319 24.3688 26.6225 24.3328 26.5283 24.27L25.0687 23.2969C24.9565 23.2222 24.8307 23.1703 24.6984 23.1443C24.5661 23.1184 24.4301 23.1188 24.298 23.1455C24.1658 23.1722 24.0403 23.2248 23.9286 23.3002C23.8168 23.3755 23.7211 23.4722 23.6468 23.5847L22.6037 22.8955C22.7687 22.6456 22.9814 22.4308 23.2296 22.2634C23.4779 22.096 23.7567 21.9793 24.0502 21.92C24.3437 21.8606 24.646 21.8598 24.9398 21.9177C25.2335 21.9755 25.513 22.0908 25.7621 22.2569L26.4331 22.7042C26.5968 22.3965 26.8587 22.1523 27.1771 22.0106C27.4956 21.8688 27.8523 21.8376 28.1905 21.9219C28.5287 22.0062 28.829 22.2012 29.0436 22.4758C29.2583 22.7504 29.3749 23.0889 29.3751 23.4375V25.9766L31.3372 27.7878C31.6957 27.599 32.0948 27.5002 32.5001 27.5H32.7375C32.8982 26.8759 33.1395 26.2753 33.4551 25.7134C33.0464 25.3923 32.748 24.9517 32.6015 24.4531C32.455 23.9544 32.4676 23.4225 32.6376 22.9313C32.8076 22.4402 33.1265 22.0143 33.55 21.7129C33.9734 21.4115 34.4803 21.2497 35.0001 21.25H41.8751C43.3664 21.2517 44.7962 21.8448 45.8507 22.8994C46.9052 23.9539 47.4984 25.3837 47.5001 26.875V27.5C47.9601 27.5001 48.4113 27.6271 48.8038 27.8671C49.1963 28.107 49.515 28.4507 49.7248 28.8601C49.9345 29.2696 50.0272 29.729 49.9927 30.1878C49.9581 30.6466 49.7976 31.0869 49.5289 31.4603C51.1932 31.6082 52.7419 32.3738 53.8702 33.6063C54.9984 34.8388 55.6244 36.4489 55.6251 38.1198C55.6251 40.4263 55.6928 42.746 55.4754 45.0448C55.3961 45.8917 55.2815 46.7537 55.1347 47.606L53.9028 47.394C54.0441 46.5731 54.1545 45.7434 54.2309 44.9277C54.4341 42.6643 54.3751 40.3898 54.3751 38.1198C54.3751 37.168 54.1251 36.2328 53.6501 35.4079C53.1751 34.583 52.4917 33.8974 51.6684 33.4196C50.8451 32.9418 49.9108 32.6887 48.9589 32.6855C48.0071 32.6824 47.071 32.9293 46.2446 33.4016L44.6851 34.2927C44.5907 34.3466 44.4838 34.375 44.3751 34.375H36.8751C36.7179 34.375 36.5666 34.3158 36.4512 34.2092L28.7674 27.1166L24.6339 31.25L25.9376 32.5537L28.9331 29.558L29.817 30.442L26.8214 33.4375L33.3526 39.9688C33.758 40.3763 34.2401 40.6993 34.7712 40.9193C35.3022 41.1392 35.8716 41.2516 36.4464 41.25H48.7501V42.5H42.7012C42.881 42.6314 43.0392 42.79 43.17 42.9702L45.0332 45.5341C45.3596 45.9941 45.4931 46.5636 45.4049 47.1206C45.3167 47.6777 45.014 48.1782 44.5615 48.5148L44.5537 48.5202L40.6251 51.287V57.5H51.9829L53.6719 48.6328L54.9001 48.8672L53.1141 58.2422C53.0868 58.385 53.0105 58.5139 52.8985 58.6066C52.7864 58.6993 52.6455 58.75 52.5001 58.75H30.6251C28.968 58.7481 27.3794 58.089 26.2077 56.9173C25.036 55.7456 24.3769 54.157 24.3751 52.5V39.375C24.3744 37.9487 24.7494 36.5473 25.4624 35.312L26.5444 35.938C25.9414 36.9831 25.6243 38.1685 25.6251 39.375V50.8424L30.6251 48.2252V42.7344H31.8751V47.5709L33.4802 46.7306L34.5922 42.7288C34.6378 42.5623 34.7054 42.4027 34.7933 42.2541C33.9152 41.9847 33.1169 41.5034 32.4688 40.8525L22.0439 30.4277C21.784 30.1678 21.5911 29.8488 21.4815 29.498C21.3719 29.1471 21.349 28.775 21.4147 28.4134L22.1692 24.2632L23.3991 24.4868L22.6445 28.6371ZM34.3039 54.4574L31.9801 50.9717L33.0201 50.2783L35.2916 53.6857L37.0276 52.3293L36.9494 52.2234L33.8237 47.9617L25.6251 52.2533V52.5C25.6267 53.7894 26.1258 55.0285 27.0184 55.959C27.9111 56.8895 29.1284 57.4396 30.4166 57.4947L34.3039 54.4574ZM39.3751 52.1673L38.2623 52.9509L32.4401 57.5H39.3751V52.1673ZM38.2617 42.5C38.4 42.8312 38.4433 43.1944 38.3867 43.5488L38.3403 43.8421L39.3751 43.0903V42.5H38.2617ZM35.7969 43.0614L34.6932 47.0338L37.5845 50.9754L38.0314 51.5848L43.8298 47.5015C44.0182 47.3633 44.1443 47.156 44.1803 46.925C44.2163 46.6941 44.1594 46.4583 44.0219 46.2692L42.1587 43.7053C42.0209 43.5158 41.8135 43.3887 41.582 43.3521C41.3505 43.3155 41.114 43.3723 40.9244 43.51L37.8548 45.7406C37.7548 45.8132 37.6356 45.8545 37.5121 45.8593C37.3887 45.8641 37.2666 45.8322 37.1612 45.7676C37.0559 45.7031 36.9721 45.6087 36.9203 45.4966C36.8686 45.3844 36.8512 45.2594 36.8705 45.1373L37.1527 43.3538C37.1803 43.1785 37.1398 42.9994 37.0395 42.8531C36.9392 42.7068 36.7866 42.6044 36.6132 42.567C36.4398 42.5297 36.2586 42.5601 36.107 42.6521C35.9553 42.7441 35.8446 42.8907 35.7976 43.0617L35.7969 43.0614ZM47.5001 31.25C47.8316 31.25 48.1495 31.1183 48.384 30.8839C48.6184 30.6495 48.7501 30.3315 48.7501 30C48.7501 29.6685 48.6184 29.3505 48.384 29.1161C48.1495 28.8817 47.8316 28.75 47.5001 28.75V31.25ZM33.7501 23.75C33.7505 24.0814 33.8823 24.3991 34.1166 24.6335C34.351 24.8678 34.6687 24.9996 35.0001 25H44.3751C44.478 25 44.5792 25.0254 44.67 25.0739C44.7607 25.1225 44.838 25.1927 44.8951 25.2783L46.2501 27.3108V26.875C46.2487 25.7151 45.7874 24.6031 44.9672 23.7829C44.147 22.9627 43.035 22.5013 41.8751 22.5H35.0001C34.6687 22.5004 34.351 22.6322 34.1166 22.8666C33.8823 23.1009 33.7505 23.4186 33.7501 23.75ZM33.7501 30.0148L36.8349 32.8623C37.7604 32.2097 38.8676 31.8643 40.0001 31.875C41.3098 31.875 42.5704 32.3281 43.5001 33.125H44.2087L45.6241 32.3162C45.8271 32.2005 46.0361 32.0955 46.2501 32.0015V29.564L44.0406 26.25H35.0001C34.868 26.25 34.7361 26.2395 34.6056 26.2188C34.0438 27.1756 33.7483 28.2654 33.7501 29.375V30.0148ZM54.0296 30.066L53.4685 31.1832C53.6076 31.254 56.8748 32.9699 56.8748 37.5002H58.1248C58.1251 32.1749 54.1968 30.1496 54.0296 30.066ZM48.6651 25.0927L49.6445 25.8694L52.3398 22.4709L51.3605 21.6941L48.6651 25.0927ZM50.6946 28.4108L51.1305 29.5827L56.1696 27.7077L55.7337 26.5362L50.6946 28.4108ZM45.3769 49.0068L46.1362 50C48.4118 48.2598 47.915 45.625 47.8927 45.514L46.667 45.7591C46.6709 45.7784 47.0401 47.7349 45.3769 49.0068ZM44.2362 36.5376L45.5195 38.1157L46.4893 37.327L45.206 35.7489L44.2362 36.5376ZM42.5072 39.0165L42.6017 37.1775L41.3533 37.1133L41.2588 38.9523L42.5072 39.0165Z" fill="white"/>
<defs>
<linearGradient id="paint0_linear" x1="11.4583" y1="-7.90908" x2="65.4425" y2="-17.7937" gradientUnits="userSpaceOnUse">
<stop stop-color="#19A3DC"/>
<stop offset="1" stop-color="#256EDC"/>
</linearGradient>
</defs>
</svg>
